M48
METRIC,LZ,000.000
;FILE_FORMAT=3:3
;TYPE=PLATED
;Layer: PTH_Through
;EasyEDA v6.5.47, 2024-10-06 10:48:52
;7f18c47773b3442c901778b5daae8bd2,c2b9568e21e3459f90af4e12abca8b04,10
;Gerber Generator version 0.2
;Holesize 1 = 0.712 mm
T01C0.712
;Holesize 2 = 0.813 mm
T02C0.813
;Holesize 3 = 1.016 mm
T03C1.016
%
G05
G90
T01
X047117Y-026670
X047117Y-029210
X047117Y-031750
X047117Y-034290
X047117Y-036830
X047117Y-039370
X047117Y-041910
X047117Y-044450
X047117Y-046990
X047117Y-049530
X047117Y-052070
X047117Y-054610
X047117Y-057150
X047117Y-059690
X062357Y-059690
X062357Y-057150
X062357Y-054610
X062357Y-052070
X062357Y-049530
X062357Y-046990
X062357Y-044450
X062357Y-041910
X062357Y-039370
X062357Y-036830
X062357Y-034290
X062357Y-031750
X062357Y-029210
X062357Y-026670
T02
X072390Y-059690
X074930Y-059690
X077470Y-059690
X080010Y-059690
X082550Y-059690
X085090Y-059690
X087630Y-059690
X090170Y-059690
X090170Y-052070
X087630Y-052070
X085090Y-052070
X082550Y-052070
X080010Y-052070
X077470Y-052070
X074930Y-052070
X072390Y-052070
X072390Y-034290
X074930Y-034290
X077470Y-034290
X080010Y-034290
X082550Y-034290
X085090Y-034290
X087630Y-034290
X090170Y-034290
X090170Y-026670
X087630Y-026670
X085090Y-026670
X082550Y-026670
X080010Y-026670
X077470Y-026670
X074930Y-026670
X072390Y-026670
T03
X072644Y-019558
X070104Y-019558
X067564Y-019558
X065024Y-019558
X062484Y-019558
X059944Y-019558
X054864Y-019558
X052324Y-019558
X049784Y-019558
X047244Y-019558
X044704Y-019558
X042164Y-019558
X042164Y-067818
X044704Y-067818
X047244Y-067818
X049784Y-067818
X052324Y-067818
X054864Y-067818
X057404Y-067818
X059944Y-067818
X063754Y-067818
X066294Y-067818
X068834Y-067818
X071374Y-067818
X073914Y-067818
X076454Y-067818
X078994Y-067818
X081534Y-067818
X084074Y-067818
X086614Y-067818
X075184Y-019558
X077724Y-019558
M30
