G04 Layer: BottomSolderMaskLayer*
G04 EasyEDA v6.5.47, 2024-10-06 10:48:52*
G04 7f18c47773b3442c901778b5daae8bd2,c2b9568e21e3459f90af4e12abca8b04,10*
G04 Gerber Generator version 0.2*
G04 Scale: 100 percent, Rotated: No, Reflected: No *
G04 Dimensions in millimeters *
G04 leading zeros omitted , absolute positions ,4 integer and 5 decimal *
%FSLAX45Y45*%
%MOMM*%

%AMMACRO1*4,1,8,-0.7407,-0.8001,-0.8001,-0.7404,-0.8001,0.7407,-0.7407,0.8001,0.7404,0.8001,0.8001,0.7407,0.8001,-0.7404,0.7404,-0.8001,-0.7407,-0.8001,0*%
%AMMACRO2*4,1,8,-0.8296,-1.2446,-0.889,-1.1849,-0.889,1.1852,-0.8296,1.2446,0.8293,1.2446,0.889,1.1852,0.889,-1.1849,0.8293,-1.2446,-0.8296,-1.2446,0*%
%ADD10MACRO1*%
%ADD11C,1.6002*%
%ADD12C,2.0828*%
%ADD13MACRO2*%
%ADD14O,1.778X2.4892000000000003*%

%LPD*%
D10*
G01*
X4711700Y-2667000D03*
D11*
G01*
X4711700Y-2921000D03*
G01*
X4711700Y-3175000D03*
G01*
X4711700Y-3429000D03*
G01*
X4711700Y-3683000D03*
G01*
X4711700Y-3937000D03*
G01*
X4711700Y-4191000D03*
G01*
X4711700Y-4445000D03*
G01*
X4711700Y-4699000D03*
G01*
X4711700Y-4953000D03*
G01*
X4711700Y-5207000D03*
G01*
X4711700Y-5461000D03*
G01*
X4711700Y-5715000D03*
G01*
X4711700Y-5969000D03*
G01*
X6235700Y-5969000D03*
G01*
X6235700Y-5715000D03*
G01*
X6235700Y-5461000D03*
G01*
X6235700Y-5207000D03*
G01*
X6235700Y-4953000D03*
G01*
X6235700Y-4699000D03*
G01*
X6235700Y-4445000D03*
G01*
X6235700Y-4191000D03*
G01*
X6235700Y-3937000D03*
G01*
X6235700Y-3683000D03*
G01*
X6235700Y-3429000D03*
G01*
X6235700Y-3175000D03*
G01*
X6235700Y-2921000D03*
G01*
X6235700Y-2667000D03*
D12*
G01*
X7264400Y-1955800D03*
G01*
X7010400Y-1955800D03*
G01*
X6756400Y-1955800D03*
G01*
X6502400Y-1955800D03*
G01*
X6248400Y-1955800D03*
G01*
X5994400Y-1955800D03*
G01*
X5486400Y-1955800D03*
G01*
X5232400Y-1955800D03*
G01*
X4978400Y-1955800D03*
G01*
X4724400Y-1955800D03*
G01*
X4470400Y-1955800D03*
G01*
X4216400Y-1955800D03*
G01*
X4216400Y-6781800D03*
G01*
X4470400Y-6781800D03*
G01*
X4724400Y-6781800D03*
G01*
X4978400Y-6781800D03*
G01*
X5232400Y-6781800D03*
G01*
X5486400Y-6781800D03*
G01*
X5740400Y-6781800D03*
G01*
X5994400Y-6781800D03*
G01*
X6375400Y-6781800D03*
G01*
X6629400Y-6781800D03*
G01*
X6883400Y-6781800D03*
G01*
X7137400Y-6781800D03*
G01*
X7391400Y-6781800D03*
G01*
X7645400Y-6781800D03*
G01*
X7899400Y-6781800D03*
G01*
X8153400Y-6781800D03*
G01*
X8407400Y-6781800D03*
G01*
X8661400Y-6781800D03*
G01*
X7518400Y-1955800D03*
G01*
X7772400Y-1955800D03*
D13*
G01*
X7239000Y-5969000D03*
D14*
G01*
X7493000Y-5969000D03*
G01*
X7747000Y-5969000D03*
G01*
X8001000Y-5969000D03*
G01*
X8255000Y-5969000D03*
G01*
X8509000Y-5969000D03*
G01*
X8763000Y-5969000D03*
G01*
X9017000Y-5969000D03*
G01*
X9017000Y-5207000D03*
G01*
X8763000Y-5207000D03*
G01*
X8509000Y-5207000D03*
G01*
X8255000Y-5207000D03*
G01*
X8001000Y-5207000D03*
G01*
X7747000Y-5207000D03*
G01*
X7493000Y-5207000D03*
G01*
X7239000Y-5207000D03*
D13*
G01*
X7239000Y-3429000D03*
D14*
G01*
X7493000Y-3429000D03*
G01*
X7747000Y-3429000D03*
G01*
X8001000Y-3429000D03*
G01*
X8255000Y-3429000D03*
G01*
X8509000Y-3429000D03*
G01*
X8763000Y-3429000D03*
G01*
X9017000Y-3429000D03*
G01*
X9017000Y-2667000D03*
G01*
X8763000Y-2667000D03*
G01*
X8509000Y-2667000D03*
G01*
X8255000Y-2667000D03*
G01*
X8001000Y-2667000D03*
G01*
X7747000Y-2667000D03*
G01*
X7493000Y-2667000D03*
G01*
X7239000Y-2667000D03*
M02*
