G04 Layer: TopSilkscreenLayer*
G04 EasyEDA v6.5.47, 2024-10-06 10:48:52*
G04 7f18c47773b3442c901778b5daae8bd2,c2b9568e21e3459f90af4e12abca8b04,10*
G04 Gerber Generator version 0.2*
G04 Scale: 100 percent, Rotated: No, Reflected: No *
G04 Dimensions in millimeters *
G04 leading zeros omitted , absolute positions ,4 integer and 5 decimal *
%FSLAX45Y45*%
%MOMM*%

%ADD10C,0.2032*%
%ADD11C,0.1524*%
%ADD12C,0.2286*%
%ADD13C,0.2540*%

%LPD*%
G36*
X8154111Y-3770579D02*
G01*
X8131302Y-3770731D01*
X8119567Y-3771087D01*
X8110372Y-3771798D01*
X8103362Y-3772915D01*
X8098231Y-3774490D01*
X8094675Y-3776624D01*
X8092338Y-3779418D01*
X8090916Y-3782872D01*
X8086090Y-3803497D01*
X8075828Y-3852418D01*
X8074152Y-3858818D01*
X8072374Y-3864254D01*
X8070392Y-3868826D01*
X8068157Y-3872687D01*
X8065465Y-3876040D01*
X8062264Y-3878986D01*
X8058403Y-3881678D01*
X8053831Y-3884320D01*
X8048447Y-3887063D01*
X8034985Y-3893159D01*
X8022691Y-3898137D01*
X8017306Y-3899865D01*
X8012277Y-3901084D01*
X8007553Y-3901795D01*
X8002930Y-3901897D01*
X7998409Y-3901440D01*
X7993786Y-3900424D01*
X7988960Y-3898747D01*
X7983880Y-3896461D01*
X7978343Y-3893515D01*
X7972348Y-3889959D01*
X7958378Y-3880662D01*
X7909407Y-3846423D01*
X7833055Y-3922776D01*
X7892846Y-4007612D01*
X7877657Y-4047185D01*
X7874812Y-4053992D01*
X7869275Y-4065473D01*
X7866430Y-4070248D01*
X7863484Y-4074464D01*
X7860385Y-4078122D01*
X7857032Y-4081322D01*
X7853425Y-4084065D01*
X7849514Y-4086453D01*
X7845196Y-4088485D01*
X7840421Y-4090263D01*
X7835188Y-4091787D01*
X7829346Y-4093108D01*
X7815834Y-4095343D01*
X7799578Y-4097629D01*
X7786674Y-4099712D01*
X7781340Y-4100779D01*
X7776718Y-4101947D01*
X7772755Y-4103319D01*
X7769352Y-4104843D01*
X7766558Y-4106621D01*
X7764221Y-4108704D01*
X7762341Y-4111193D01*
X7760868Y-4114088D01*
X7759750Y-4117441D01*
X7758938Y-4121302D01*
X7758379Y-4125722D01*
X7757871Y-4136593D01*
X7757820Y-4173931D01*
X7758175Y-4186326D01*
X7758531Y-4191508D01*
X7759141Y-4196029D01*
X7760004Y-4200042D01*
X7761122Y-4203496D01*
X7762544Y-4206443D01*
X7764424Y-4208983D01*
X7766659Y-4211167D01*
X7769352Y-4213047D01*
X7772603Y-4214622D01*
X7776362Y-4215993D01*
X7785658Y-4218228D01*
X7797698Y-4220159D01*
X7827619Y-4224324D01*
X7839151Y-4226509D01*
X7843875Y-4227880D01*
X7847990Y-4229404D01*
X7851648Y-4231284D01*
X7854848Y-4233570D01*
X7857794Y-4236262D01*
X7860487Y-4239514D01*
X7863027Y-4243324D01*
X7868005Y-4253026D01*
X7873441Y-4265930D01*
X7891525Y-4311802D01*
X7833055Y-4394708D01*
X7910118Y-4471771D01*
X7959191Y-4436668D01*
X7973263Y-4427067D01*
X7978800Y-4423714D01*
X7983474Y-4421276D01*
X7987588Y-4419752D01*
X7991348Y-4418990D01*
X7994853Y-4418990D01*
X7998409Y-4419650D01*
X8002168Y-4420971D01*
X8019237Y-4429252D01*
X8026247Y-4432147D01*
X8031327Y-4433773D01*
X8033664Y-4433722D01*
X8037017Y-4426356D01*
X8055813Y-4381398D01*
X8102295Y-4267250D01*
X8070189Y-4232198D01*
X8063585Y-4223867D01*
X8057845Y-4215384D01*
X8053019Y-4206798D01*
X8049006Y-4198162D01*
X8045856Y-4189476D01*
X8043468Y-4180789D01*
X8041894Y-4172102D01*
X8041030Y-4163517D01*
X8040878Y-4154982D01*
X8041386Y-4146600D01*
X8042554Y-4138320D01*
X8044383Y-4130243D01*
X8046770Y-4122420D01*
X8049768Y-4114749D01*
X8053273Y-4107434D01*
X8057337Y-4100372D01*
X8061858Y-4093616D01*
X8066836Y-4087266D01*
X8072272Y-4081322D01*
X8078114Y-4075785D01*
X8084312Y-4070654D01*
X8090865Y-4066082D01*
X8097723Y-4061968D01*
X8104936Y-4058462D01*
X8112353Y-4055465D01*
X8120024Y-4053128D01*
X8127898Y-4051401D01*
X8135975Y-4050385D01*
X8140039Y-4050080D01*
X8148320Y-4050131D01*
X8152536Y-4050385D01*
X8160969Y-4051554D01*
X8169452Y-4053484D01*
X8177987Y-4056227D01*
X8186572Y-4059834D01*
X8195106Y-4064355D01*
X8203641Y-4069740D01*
X8212074Y-4076090D01*
X8220659Y-4083659D01*
X8224774Y-4087825D01*
X8228634Y-4092092D01*
X8232190Y-4096461D01*
X8238439Y-4105452D01*
X8241182Y-4110126D01*
X8243620Y-4114800D01*
X8247634Y-4124451D01*
X8249259Y-4129379D01*
X8251596Y-4139336D01*
X8252358Y-4144416D01*
X8252815Y-4149496D01*
X8253018Y-4154627D01*
X8252561Y-4164990D01*
X8250986Y-4175404D01*
X8248294Y-4185767D01*
X8246516Y-4191000D01*
X8244484Y-4196130D01*
X8239556Y-4206443D01*
X8236661Y-4211523D01*
X8230006Y-4221632D01*
X8222284Y-4231487D01*
X8189518Y-4267250D01*
X8232851Y-4373778D01*
X8253222Y-4422698D01*
X8258149Y-4433722D01*
X8260486Y-4433773D01*
X8265566Y-4432147D01*
X8272576Y-4429252D01*
X8289645Y-4420971D01*
X8293404Y-4419650D01*
X8296960Y-4418990D01*
X8300466Y-4418990D01*
X8304225Y-4419752D01*
X8308340Y-4421276D01*
X8313013Y-4423714D01*
X8318550Y-4427067D01*
X8332622Y-4436668D01*
X8381695Y-4471771D01*
X8458758Y-4394708D01*
X8400288Y-4311802D01*
X8418372Y-4265930D01*
X8423808Y-4253026D01*
X8428786Y-4243324D01*
X8431326Y-4239514D01*
X8434019Y-4236262D01*
X8436965Y-4233570D01*
X8440166Y-4231284D01*
X8443823Y-4229404D01*
X8447938Y-4227880D01*
X8452662Y-4226509D01*
X8464194Y-4224324D01*
X8494115Y-4220159D01*
X8506155Y-4218228D01*
X8515451Y-4215993D01*
X8519210Y-4214622D01*
X8522462Y-4213047D01*
X8525154Y-4211167D01*
X8527389Y-4208983D01*
X8529269Y-4206443D01*
X8530691Y-4203496D01*
X8531809Y-4200042D01*
X8532672Y-4196029D01*
X8533282Y-4191508D01*
X8533892Y-4180484D01*
X8534044Y-4143095D01*
X8533790Y-4130801D01*
X8533434Y-4125722D01*
X8532876Y-4121302D01*
X8532063Y-4117441D01*
X8530945Y-4114088D01*
X8529472Y-4111193D01*
X8527592Y-4108704D01*
X8525256Y-4106621D01*
X8522462Y-4104843D01*
X8519058Y-4103319D01*
X8515096Y-4101947D01*
X8510473Y-4100779D01*
X8499094Y-4098696D01*
X8468868Y-4094276D01*
X8462467Y-4093108D01*
X8456625Y-4091787D01*
X8451392Y-4090263D01*
X8446617Y-4088485D01*
X8442299Y-4086453D01*
X8438388Y-4084065D01*
X8434781Y-4081322D01*
X8431428Y-4078122D01*
X8428329Y-4074464D01*
X8425383Y-4070248D01*
X8422589Y-4065473D01*
X8419795Y-4060037D01*
X8417001Y-4053992D01*
X8411159Y-4039615D01*
X8398967Y-4007612D01*
X8458758Y-3922776D01*
X8382406Y-3846423D01*
X8333435Y-3880662D01*
X8319465Y-3889959D01*
X8313470Y-3893515D01*
X8307933Y-3896461D01*
X8302853Y-3898747D01*
X8298027Y-3900424D01*
X8293404Y-3901440D01*
X8288883Y-3901897D01*
X8284260Y-3901795D01*
X8279536Y-3901084D01*
X8274507Y-3899865D01*
X8269122Y-3898137D01*
X8256828Y-3893159D01*
X8243366Y-3887063D01*
X8237981Y-3884320D01*
X8233409Y-3881678D01*
X8229549Y-3878986D01*
X8226348Y-3876040D01*
X8223707Y-3872687D01*
X8221421Y-3868826D01*
X8219440Y-3864254D01*
X8217662Y-3858818D01*
X8215985Y-3852418D01*
X8212480Y-3835958D01*
X8207197Y-3809187D01*
X8204301Y-3796131D01*
X8202828Y-3790899D01*
X8201304Y-3786428D01*
X8199628Y-3782669D01*
X8197748Y-3779520D01*
X8195564Y-3776979D01*
X8193074Y-3774948D01*
X8190230Y-3773424D01*
X8186877Y-3772255D01*
X8183067Y-3771493D01*
X8178647Y-3770985D01*
X8167878Y-3770579D01*
G37*
G36*
X7890662Y-4546854D02*
G01*
X7884109Y-4547971D01*
X7876692Y-4550968D01*
X7869224Y-4555388D01*
X7862671Y-4560824D01*
X7859471Y-4564583D01*
X7856677Y-4568850D01*
X7854289Y-4573574D01*
X7852308Y-4578705D01*
X7851342Y-4582007D01*
X7869834Y-4582007D01*
X7869936Y-4579162D01*
X7871510Y-4575911D01*
X7874660Y-4572203D01*
X7878165Y-4569968D01*
X7882839Y-4568850D01*
X7888224Y-4568799D01*
X7893862Y-4569612D01*
X7899298Y-4571238D01*
X7904073Y-4573625D01*
X7907781Y-4576572D01*
X7909915Y-4580077D01*
X7909814Y-4583836D01*
X7906613Y-4586579D01*
X7900365Y-4588256D01*
X7891272Y-4588814D01*
X7884159Y-4588510D01*
X7878419Y-4587697D01*
X7874101Y-4586274D01*
X7871256Y-4584395D01*
X7869834Y-4582007D01*
X7851342Y-4582007D01*
X7850733Y-4584090D01*
X7849616Y-4589729D01*
X7848853Y-4595520D01*
X7848600Y-4601311D01*
X7848701Y-4607153D01*
X7849260Y-4612843D01*
X7850225Y-4618329D01*
X7851597Y-4623562D01*
X7853425Y-4628438D01*
X7855712Y-4632909D01*
X7858353Y-4636820D01*
X7861503Y-4640173D01*
X7865973Y-4643628D01*
X7871053Y-4646472D01*
X7876489Y-4648657D01*
X7882229Y-4650232D01*
X7888122Y-4651298D01*
X7894015Y-4651756D01*
X7899704Y-4651705D01*
X7905191Y-4651146D01*
X7910220Y-4650079D01*
X7914690Y-4648555D01*
X7918450Y-4646574D01*
X7921396Y-4644186D01*
X7923377Y-4641342D01*
X7924241Y-4638192D01*
X7923885Y-4634636D01*
X7922107Y-4630775D01*
X7919364Y-4628184D01*
X7915351Y-4627372D01*
X7910169Y-4628438D01*
X7896758Y-4634280D01*
X7890662Y-4635144D01*
X7885125Y-4633874D01*
X7879740Y-4630420D01*
X7875879Y-4626965D01*
X7872984Y-4623866D01*
X7871155Y-4621072D01*
X7870342Y-4618634D01*
X7870494Y-4616500D01*
X7871714Y-4614672D01*
X7874000Y-4613148D01*
X7877302Y-4611928D01*
X7881670Y-4610963D01*
X7887106Y-4610303D01*
X7893558Y-4609896D01*
X7910779Y-4609693D01*
X7918246Y-4609338D01*
X7923834Y-4608474D01*
X7927746Y-4607052D01*
X7930286Y-4604918D01*
X7931759Y-4601819D01*
X7932470Y-4597654D01*
X7932623Y-4592320D01*
X7932166Y-4586986D01*
X7930845Y-4581652D01*
X7928813Y-4576368D01*
X7926070Y-4571187D01*
X7922717Y-4566259D01*
X7918907Y-4561687D01*
X7914690Y-4557572D01*
X7910169Y-4553966D01*
X7905394Y-4551019D01*
X7900517Y-4548784D01*
X7895539Y-4547362D01*
G37*
G36*
X8416696Y-4547108D02*
G01*
X8411413Y-4547717D01*
X8405825Y-4551527D01*
X8404402Y-4553661D01*
X8403183Y-4556810D01*
X8402167Y-4560976D01*
X8401405Y-4565904D01*
X8400440Y-4577740D01*
X8400237Y-4591253D01*
X8400745Y-4605528D01*
X8401913Y-4619447D01*
X8403590Y-4632045D01*
X8405825Y-4642307D01*
X8407146Y-4646269D01*
X8408517Y-4649216D01*
X8410041Y-4651095D01*
X8411667Y-4651756D01*
X8414359Y-4651349D01*
X8416594Y-4650028D01*
X8418423Y-4647742D01*
X8419846Y-4644339D01*
X8420912Y-4639716D01*
X8421624Y-4633772D01*
X8422386Y-4609490D01*
X8423148Y-4601870D01*
X8424316Y-4594910D01*
X8425942Y-4588611D01*
X8427923Y-4583023D01*
X8430260Y-4578248D01*
X8432850Y-4574387D01*
X8435746Y-4571492D01*
X8438845Y-4569561D01*
X8442096Y-4568748D01*
X8445500Y-4569104D01*
X8449005Y-4570628D01*
X8452154Y-4571441D01*
X8456015Y-4570628D01*
X8459978Y-4568342D01*
X8463686Y-4564837D01*
X8465616Y-4561636D01*
X8466175Y-4558639D01*
X8465413Y-4555896D01*
X8463635Y-4553508D01*
X8460943Y-4551527D01*
X8457539Y-4550003D01*
X8453577Y-4549038D01*
X8449310Y-4548632D01*
X8444839Y-4548835D01*
X8440420Y-4549800D01*
X8436152Y-4551578D01*
X8432292Y-4554118D01*
X8427669Y-4557522D01*
X8424519Y-4558741D01*
X8422690Y-4557776D01*
X8422132Y-4554677D01*
X8420608Y-4549546D01*
G37*
G36*
X8367318Y-4547362D02*
G01*
X8366201Y-4547565D01*
X8365083Y-4548378D01*
X8364016Y-4549851D01*
X8363000Y-4551984D01*
X8361121Y-4558385D01*
X8359495Y-4567529D01*
X8358276Y-4579518D01*
X8357057Y-4599330D01*
X8356193Y-4609033D01*
X8355075Y-4616246D01*
X8353399Y-4621225D01*
X8351113Y-4624476D01*
X8347913Y-4626305D01*
X8343696Y-4627067D01*
X8338210Y-4627270D01*
X8332825Y-4627067D01*
X8328609Y-4626254D01*
X8325358Y-4624476D01*
X8322919Y-4621377D01*
X8321040Y-4616653D01*
X8319617Y-4609998D01*
X8318398Y-4601006D01*
X8316366Y-4581296D01*
X8315401Y-4574133D01*
X8314283Y-4567783D01*
X8313064Y-4562348D01*
X8311743Y-4557725D01*
X8310422Y-4553966D01*
X8309000Y-4551070D01*
X8307578Y-4549038D01*
X8306206Y-4547870D01*
X8304784Y-4547565D01*
X8303412Y-4548073D01*
X8302142Y-4549444D01*
X8300923Y-4551680D01*
X8299805Y-4554728D01*
X8298789Y-4558639D01*
X8297925Y-4563414D01*
X8297214Y-4569002D01*
X8296351Y-4582769D01*
X8296351Y-4599635D01*
X8297164Y-4614722D01*
X8297875Y-4621123D01*
X8298891Y-4626864D01*
X8300161Y-4631893D01*
X8301736Y-4636262D01*
X8303666Y-4640072D01*
X8305850Y-4643272D01*
X8308441Y-4645914D01*
X8311388Y-4648047D01*
X8314740Y-4649724D01*
X8318500Y-4650943D01*
X8322665Y-4651756D01*
X8327288Y-4652162D01*
X8368284Y-4651705D01*
X8371281Y-4651400D01*
X8373719Y-4650638D01*
X8375650Y-4649419D01*
X8377174Y-4647438D01*
X8378240Y-4644644D01*
X8379002Y-4640884D01*
X8379409Y-4635957D01*
X8379561Y-4629708D01*
X8379155Y-4612640D01*
X8378342Y-4593894D01*
X8377224Y-4580178D01*
X8375700Y-4568799D01*
X8373821Y-4559757D01*
X8372856Y-4556150D01*
X8371789Y-4553153D01*
X8370671Y-4550765D01*
X8369553Y-4548987D01*
X8368436Y-4547870D01*
G37*
G36*
X8137956Y-4547412D02*
G01*
X8131454Y-4547870D01*
X8125053Y-4549190D01*
X8118754Y-4551375D01*
X8112709Y-4554423D01*
X8108086Y-4557674D01*
X8104479Y-4561332D01*
X8101838Y-4565446D01*
X8100110Y-4569764D01*
X8099298Y-4574286D01*
X8099298Y-4578908D01*
X8100110Y-4583531D01*
X8101685Y-4588052D01*
X8103971Y-4592421D01*
X8106918Y-4596485D01*
X8110524Y-4600143D01*
X8114741Y-4603394D01*
X8119516Y-4606036D01*
X8124850Y-4608068D01*
X8130590Y-4609338D01*
X8145322Y-4610455D01*
X8151469Y-4612487D01*
X8155178Y-4615840D01*
X8156397Y-4620514D01*
X8155533Y-4625644D01*
X8153196Y-4629861D01*
X8149437Y-4633061D01*
X8144611Y-4635246D01*
X8138871Y-4636312D01*
X8132419Y-4636160D01*
X8125459Y-4634839D01*
X8111540Y-4629556D01*
X8105952Y-4628184D01*
X8101533Y-4628032D01*
X8098434Y-4628946D01*
X8096758Y-4630928D01*
X8096605Y-4633874D01*
X8098078Y-4637684D01*
X8101380Y-4642358D01*
X8104682Y-4645202D01*
X8109305Y-4647539D01*
X8114995Y-4649317D01*
X8121446Y-4650536D01*
X8128406Y-4651298D01*
X8135670Y-4651451D01*
X8142884Y-4651146D01*
X8149844Y-4650282D01*
X8156346Y-4648860D01*
X8162036Y-4646980D01*
X8166709Y-4644593D01*
X8170062Y-4641646D01*
X8173567Y-4636719D01*
X8176006Y-4631740D01*
X8177377Y-4626762D01*
X8177784Y-4621885D01*
X8177123Y-4617110D01*
X8175599Y-4612538D01*
X8173059Y-4608220D01*
X8169656Y-4604258D01*
X8165388Y-4600651D01*
X8160308Y-4597501D01*
X8154365Y-4594860D01*
X8141512Y-4591100D01*
X8136178Y-4589170D01*
X8131606Y-4587036D01*
X8127796Y-4584852D01*
X8124799Y-4582617D01*
X8122564Y-4580382D01*
X8121142Y-4578197D01*
X8120532Y-4576165D01*
X8120735Y-4574286D01*
X8121751Y-4572660D01*
X8123631Y-4571288D01*
X8126272Y-4570272D01*
X8129778Y-4569663D01*
X8134146Y-4569510D01*
X8139328Y-4569866D01*
X8151875Y-4571746D01*
X8157667Y-4572101D01*
X8162696Y-4571898D01*
X8166912Y-4571187D01*
X8170265Y-4570069D01*
X8172653Y-4568545D01*
X8174075Y-4566666D01*
X8174431Y-4564532D01*
X8173669Y-4562144D01*
X8171738Y-4559604D01*
X8168538Y-4556963D01*
X8164068Y-4554220D01*
X8157565Y-4551222D01*
X8151063Y-4549089D01*
X8144509Y-4547819D01*
G37*
G36*
X7690713Y-4548428D02*
G01*
X7685328Y-4548886D01*
X7679690Y-4550105D01*
X7673898Y-4552035D01*
X7669072Y-4554220D01*
X7664754Y-4556861D01*
X7660843Y-4559909D01*
X7657439Y-4563313D01*
X7654442Y-4567021D01*
X7651902Y-4571034D01*
X7649768Y-4575302D01*
X7648041Y-4579772D01*
X7646771Y-4584446D01*
X7645857Y-4589170D01*
X7645400Y-4594047D01*
X7645298Y-4598924D01*
X7666583Y-4598924D01*
X7667142Y-4593386D01*
X7668615Y-4587849D01*
X7671053Y-4582566D01*
X7674457Y-4577588D01*
X7678420Y-4573422D01*
X7682280Y-4570476D01*
X7686040Y-4568698D01*
X7689596Y-4568088D01*
X7692948Y-4568647D01*
X7696098Y-4570272D01*
X7698943Y-4572965D01*
X7701432Y-4576724D01*
X7703616Y-4581499D01*
X7705344Y-4587240D01*
X7706664Y-4593945D01*
X7707528Y-4601616D01*
X7708188Y-4611319D01*
X7708392Y-4618685D01*
X7707985Y-4623917D01*
X7706766Y-4627422D01*
X7704531Y-4629404D01*
X7701127Y-4630216D01*
X7696352Y-4630166D01*
X7690053Y-4629505D01*
X7684770Y-4628337D01*
X7680096Y-4626102D01*
X7676032Y-4623003D01*
X7672628Y-4619142D01*
X7669936Y-4614672D01*
X7668006Y-4609744D01*
X7666888Y-4604461D01*
X7666583Y-4598924D01*
X7645298Y-4598924D01*
X7645603Y-4603851D01*
X7646263Y-4608728D01*
X7647279Y-4613554D01*
X7648702Y-4618278D01*
X7650480Y-4622800D01*
X7652613Y-4627168D01*
X7655052Y-4631283D01*
X7657846Y-4635195D01*
X7660995Y-4638751D01*
X7664450Y-4641951D01*
X7668209Y-4644796D01*
X7672273Y-4647184D01*
X7676642Y-4649114D01*
X7681315Y-4650536D01*
X7686294Y-4651451D01*
X7691526Y-4651756D01*
X7698231Y-4651451D01*
X7704226Y-4650486D01*
X7709458Y-4648860D01*
X7714081Y-4646523D01*
X7717993Y-4643424D01*
X7721295Y-4639513D01*
X7724038Y-4634738D01*
X7726222Y-4629099D01*
X7727848Y-4622495D01*
X7728966Y-4614926D01*
X7729626Y-4606340D01*
X7729829Y-4596638D01*
X7729524Y-4589881D01*
X7728712Y-4583531D01*
X7727340Y-4577638D01*
X7725511Y-4572203D01*
X7723174Y-4567326D01*
X7720431Y-4562906D01*
X7717231Y-4559046D01*
X7713624Y-4555744D01*
X7709712Y-4553051D01*
X7705394Y-4550918D01*
X7700772Y-4549444D01*
X7695895Y-4548581D01*
G37*
G36*
X8236153Y-4548428D02*
G01*
X8230768Y-4548886D01*
X8225129Y-4550105D01*
X8219338Y-4552035D01*
X8214512Y-4554220D01*
X8210194Y-4556861D01*
X8206333Y-4559909D01*
X8202879Y-4563313D01*
X8199881Y-4567021D01*
X8197342Y-4571034D01*
X8195208Y-4575302D01*
X8193531Y-4579772D01*
X8192211Y-4584446D01*
X8191347Y-4589170D01*
X8190839Y-4594047D01*
X8190738Y-4598924D01*
X8212023Y-4598924D01*
X8212581Y-4593386D01*
X8214055Y-4587849D01*
X8216493Y-4582566D01*
X8219948Y-4577588D01*
X8223859Y-4573422D01*
X8227720Y-4570476D01*
X8231479Y-4568698D01*
X8235035Y-4568088D01*
X8238439Y-4568647D01*
X8241538Y-4570272D01*
X8244382Y-4572965D01*
X8246922Y-4576724D01*
X8249056Y-4581499D01*
X8250834Y-4587240D01*
X8252155Y-4593945D01*
X8252968Y-4601616D01*
X8253628Y-4611319D01*
X8253831Y-4618685D01*
X8253425Y-4623917D01*
X8252206Y-4627422D01*
X8249970Y-4629404D01*
X8246618Y-4630216D01*
X8241842Y-4630166D01*
X8235492Y-4629505D01*
X8230209Y-4628337D01*
X8225536Y-4626102D01*
X8221472Y-4623003D01*
X8218068Y-4619142D01*
X8215375Y-4614672D01*
X8213445Y-4609744D01*
X8212328Y-4604461D01*
X8212023Y-4598924D01*
X8190738Y-4598924D01*
X8191042Y-4603851D01*
X8191703Y-4608728D01*
X8192770Y-4613554D01*
X8194141Y-4618278D01*
X8195919Y-4622800D01*
X8198053Y-4627168D01*
X8200491Y-4631283D01*
X8203285Y-4635195D01*
X8206435Y-4638751D01*
X8209889Y-4641951D01*
X8213648Y-4644796D01*
X8217712Y-4647184D01*
X8222081Y-4649114D01*
X8226755Y-4650536D01*
X8231733Y-4651451D01*
X8236966Y-4651756D01*
X8243671Y-4651451D01*
X8249666Y-4650486D01*
X8254949Y-4648860D01*
X8259521Y-4646523D01*
X8263483Y-4643424D01*
X8266785Y-4639513D01*
X8269478Y-4634738D01*
X8271662Y-4629099D01*
X8273288Y-4622495D01*
X8274405Y-4614926D01*
X8275066Y-4606340D01*
X8275269Y-4596638D01*
X8275015Y-4589881D01*
X8274151Y-4583531D01*
X8272830Y-4577638D01*
X8270951Y-4572203D01*
X8268614Y-4567326D01*
X8265871Y-4562906D01*
X8262670Y-4559046D01*
X8259114Y-4555744D01*
X8255152Y-4553051D01*
X8250834Y-4550918D01*
X8246262Y-4549444D01*
X8241334Y-4548581D01*
G37*
G36*
X7953603Y-4548479D02*
G01*
X7953705Y-4614164D01*
X7954060Y-4625594D01*
X7954721Y-4634585D01*
X7955686Y-4641392D01*
X7957108Y-4646269D01*
X7958937Y-4649470D01*
X7961223Y-4651197D01*
X7964068Y-4651756D01*
X7966862Y-4651298D01*
X7969097Y-4649927D01*
X7970926Y-4647438D01*
X7972348Y-4643729D01*
X7973364Y-4638649D01*
X7974075Y-4632096D01*
X7974482Y-4623917D01*
X7974736Y-4603953D01*
X7975142Y-4595571D01*
X7975904Y-4588713D01*
X7977124Y-4583226D01*
X7978698Y-4578959D01*
X7980781Y-4575708D01*
X7983423Y-4573371D01*
X7986623Y-4571695D01*
X7990890Y-4570577D01*
X7994853Y-4570628D01*
X7998612Y-4571695D01*
X8002117Y-4573778D01*
X8005267Y-4576826D01*
X8008112Y-4580788D01*
X8010550Y-4585665D01*
X8012633Y-4591354D01*
X8014309Y-4597857D01*
X8015528Y-4605070D01*
X8016290Y-4613046D01*
X8016646Y-4629556D01*
X8017103Y-4636058D01*
X8017814Y-4641291D01*
X8018932Y-4645355D01*
X8020456Y-4648301D01*
X8022437Y-4650282D01*
X8024875Y-4651400D01*
X8027873Y-4651756D01*
X8031073Y-4651400D01*
X8033562Y-4650130D01*
X8035340Y-4647742D01*
X8036559Y-4643983D01*
X8037169Y-4638548D01*
X8037271Y-4631182D01*
X8036915Y-4621631D01*
X8035442Y-4600702D01*
X8034680Y-4592726D01*
X8033766Y-4585716D01*
X8032648Y-4579518D01*
X8031327Y-4574133D01*
X8029702Y-4569510D01*
X8027720Y-4565599D01*
X8025333Y-4562246D01*
X8022539Y-4559503D01*
X8019237Y-4557217D01*
X8015376Y-4555388D01*
X8010906Y-4553966D01*
X8005775Y-4552797D01*
X7993380Y-4551222D01*
G37*
G36*
X7750809Y-4549241D02*
G01*
X7750809Y-4600549D01*
X7772806Y-4600549D01*
X7773619Y-4593539D01*
X7775346Y-4586833D01*
X7777835Y-4580737D01*
X7780934Y-4575505D01*
X7784592Y-4571441D01*
X7788554Y-4568799D01*
X7792770Y-4567834D01*
X7795463Y-4568647D01*
X7798968Y-4570780D01*
X7802727Y-4573981D01*
X7806385Y-4577892D01*
X7809636Y-4582668D01*
X7811973Y-4587849D01*
X7813395Y-4593234D01*
X7813954Y-4598720D01*
X7813751Y-4604156D01*
X7812684Y-4609388D01*
X7810957Y-4614214D01*
X7808518Y-4618482D01*
X7805420Y-4622088D01*
X7801762Y-4624882D01*
X7797495Y-4626660D01*
X7792770Y-4627270D01*
X7784033Y-4626406D01*
X7778343Y-4623358D01*
X7774889Y-4617313D01*
X7773009Y-4607610D01*
X7772806Y-4600549D01*
X7750809Y-4600549D01*
X7750962Y-4733798D01*
X7751521Y-4769866D01*
X7752029Y-4783480D01*
X7752689Y-4794554D01*
X7753502Y-4803190D01*
X7754518Y-4809744D01*
X7755788Y-4814417D01*
X7757261Y-4817465D01*
X7758074Y-4818430D01*
X7758938Y-4819091D01*
X7760970Y-4819599D01*
X7763560Y-4819040D01*
X7765796Y-4817465D01*
X7767675Y-4814620D01*
X7769250Y-4810556D01*
X7770571Y-4805070D01*
X7771688Y-4798110D01*
X7772501Y-4789627D01*
X7773873Y-4768291D01*
X7774787Y-4759248D01*
X7775905Y-4752086D01*
X7777429Y-4746599D01*
X7779359Y-4742535D01*
X7781747Y-4739690D01*
X7784744Y-4737862D01*
X7788452Y-4736795D01*
X7792720Y-4736287D01*
X7796530Y-4736541D01*
X7799933Y-4737557D01*
X7802930Y-4739436D01*
X7805521Y-4742078D01*
X7807756Y-4745583D01*
X7809585Y-4750003D01*
X7811058Y-4755337D01*
X7812176Y-4761636D01*
X7812989Y-4768850D01*
X7813446Y-4777079D01*
X7813802Y-4794910D01*
X7814208Y-4802022D01*
X7814970Y-4807762D01*
X7816037Y-4812284D01*
X7817459Y-4815636D01*
X7819288Y-4817872D01*
X7821523Y-4819192D01*
X7824216Y-4819599D01*
X7827009Y-4819142D01*
X7829296Y-4817618D01*
X7831124Y-4814976D01*
X7832547Y-4810912D01*
X7833563Y-4805375D01*
X7834223Y-4798161D01*
X7834579Y-4789170D01*
X7834731Y-4778146D01*
X7834579Y-4769307D01*
X7834122Y-4761280D01*
X7833410Y-4753914D01*
X7832344Y-4747209D01*
X7830972Y-4741214D01*
X7829245Y-4735931D01*
X7827162Y-4731258D01*
X7824774Y-4727194D01*
X7821980Y-4723790D01*
X7818831Y-4720996D01*
X7815325Y-4718812D01*
X7811414Y-4717237D01*
X7807096Y-4716170D01*
X7802372Y-4715713D01*
X7797190Y-4715764D01*
X7785150Y-4717186D01*
X7780274Y-4717389D01*
X7776718Y-4716526D01*
X7774330Y-4714189D01*
X7772908Y-4710125D01*
X7772146Y-4703826D01*
X7771841Y-4694986D01*
X7771790Y-4647184D01*
X7793888Y-4650435D01*
X7800441Y-4650994D01*
X7806436Y-4650790D01*
X7811820Y-4649724D01*
X7816646Y-4647844D01*
X7820914Y-4645152D01*
X7824571Y-4641596D01*
X7827670Y-4637227D01*
X7830210Y-4632045D01*
X7832191Y-4626000D01*
X7833614Y-4619091D01*
X7834426Y-4611370D01*
X7834731Y-4602784D01*
X7834579Y-4596028D01*
X7834071Y-4589881D01*
X7833258Y-4584192D01*
X7832090Y-4579061D01*
X7830566Y-4574387D01*
X7828635Y-4570222D01*
X7826248Y-4566513D01*
X7823453Y-4563262D01*
X7820253Y-4560417D01*
X7816545Y-4557928D01*
X7812328Y-4555896D01*
X7807655Y-4554169D01*
X7802422Y-4552797D01*
X7796682Y-4551781D01*
X7790332Y-4551070D01*
X7783423Y-4550613D01*
G37*
G36*
X8517585Y-4549292D02*
G01*
X8511895Y-4549851D01*
X8506206Y-4550968D01*
X8500719Y-4552746D01*
X8495538Y-4555185D01*
X8490762Y-4558233D01*
X8486444Y-4561636D01*
X8482634Y-4565294D01*
X8479332Y-4569155D01*
X8476488Y-4573320D01*
X8474100Y-4577638D01*
X8472170Y-4582109D01*
X8470696Y-4586681D01*
X8469680Y-4591354D01*
X8469071Y-4596079D01*
X8468918Y-4600803D01*
X8469122Y-4605528D01*
X8469731Y-4610201D01*
X8470747Y-4614773D01*
X8472170Y-4619244D01*
X8473948Y-4623562D01*
X8476081Y-4627676D01*
X8478570Y-4631537D01*
X8481466Y-4635195D01*
X8484616Y-4638497D01*
X8488121Y-4641494D01*
X8491982Y-4644136D01*
X8496096Y-4646422D01*
X8500567Y-4648200D01*
X8505291Y-4649571D01*
X8510270Y-4650435D01*
X8515553Y-4650740D01*
X8521141Y-4650486D01*
X8528608Y-4649419D01*
X8534704Y-4647742D01*
X8539378Y-4645660D01*
X8542680Y-4643272D01*
X8544610Y-4640732D01*
X8545169Y-4638090D01*
X8544356Y-4635500D01*
X8542223Y-4633061D01*
X8538667Y-4630978D01*
X8533790Y-4629251D01*
X8527592Y-4628134D01*
X8520023Y-4627626D01*
X8512556Y-4627422D01*
X8506764Y-4626813D01*
X8502345Y-4625695D01*
X8499094Y-4623816D01*
X8496808Y-4621022D01*
X8495233Y-4617059D01*
X8494217Y-4611776D01*
X8493404Y-4605020D01*
X8493302Y-4598873D01*
X8494166Y-4592980D01*
X8495893Y-4587544D01*
X8498332Y-4582617D01*
X8501329Y-4578248D01*
X8504834Y-4574641D01*
X8508695Y-4571847D01*
X8512759Y-4570018D01*
X8516975Y-4569206D01*
X8521141Y-4569510D01*
X8525205Y-4571085D01*
X8532926Y-4576978D01*
X8536940Y-4577943D01*
X8541156Y-4576826D01*
X8545830Y-4573727D01*
X8548979Y-4570526D01*
X8550706Y-4567377D01*
X8551164Y-4564329D01*
X8550503Y-4561433D01*
X8548725Y-4558741D01*
X8546084Y-4556302D01*
X8542629Y-4554169D01*
X8538464Y-4552340D01*
X8533790Y-4550918D01*
X8528659Y-4549902D01*
X8523224Y-4549343D01*
G37*
G36*
X8602370Y-4549343D02*
G01*
X8597696Y-4549749D01*
X8593074Y-4550714D01*
X8588552Y-4552289D01*
X8584184Y-4554474D01*
X8579967Y-4557318D01*
X8575954Y-4560824D01*
X8572398Y-4565142D01*
X8569299Y-4570323D01*
X8566759Y-4576267D01*
X8564919Y-4582109D01*
X8583117Y-4582109D01*
X8583117Y-4579315D01*
X8584590Y-4576114D01*
X8587638Y-4572508D01*
X8590788Y-4570069D01*
X8594344Y-4568545D01*
X8598204Y-4567986D01*
X8602268Y-4568342D01*
X8606383Y-4569561D01*
X8610447Y-4571644D01*
X8614308Y-4574590D01*
X8617915Y-4578299D01*
X8621623Y-4583734D01*
X8621115Y-4586935D01*
X8615730Y-4588408D01*
X8604808Y-4588814D01*
X8597696Y-4588510D01*
X8591905Y-4587697D01*
X8587536Y-4586325D01*
X8584641Y-4584446D01*
X8583117Y-4582109D01*
X8564919Y-4582109D01*
X8563254Y-4589627D01*
X8562289Y-4596841D01*
X8561984Y-4604207D01*
X8562187Y-4611573D01*
X8563051Y-4618786D01*
X8564473Y-4625746D01*
X8566556Y-4632248D01*
X8569248Y-4638243D01*
X8572042Y-4641697D01*
X8576310Y-4644745D01*
X8581745Y-4647336D01*
X8588095Y-4649368D01*
X8595004Y-4650943D01*
X8602218Y-4651959D01*
X8609482Y-4652365D01*
X8616391Y-4652162D01*
X8622741Y-4651349D01*
X8628227Y-4649876D01*
X8632545Y-4647692D01*
X8635441Y-4644745D01*
X8637473Y-4640224D01*
X8637981Y-4636160D01*
X8637066Y-4632756D01*
X8634933Y-4630166D01*
X8631783Y-4628540D01*
X8627770Y-4627981D01*
X8623147Y-4628642D01*
X8611971Y-4633214D01*
X8605875Y-4634433D01*
X8600033Y-4634433D01*
X8594598Y-4633315D01*
X8589924Y-4631232D01*
X8586216Y-4628134D01*
X8583828Y-4624222D01*
X8582964Y-4619548D01*
X8583422Y-4617161D01*
X8584742Y-4615129D01*
X8587079Y-4613402D01*
X8590381Y-4612081D01*
X8594699Y-4611065D01*
X8600135Y-4610354D01*
X8606688Y-4609947D01*
X8624062Y-4609693D01*
X8631478Y-4609338D01*
X8637016Y-4608474D01*
X8640978Y-4607102D01*
X8643518Y-4604918D01*
X8645042Y-4601921D01*
X8645753Y-4597857D01*
X8645906Y-4592574D01*
X8645601Y-4587138D01*
X8644636Y-4581956D01*
X8643112Y-4577080D01*
X8641080Y-4572508D01*
X8638590Y-4568291D01*
X8635644Y-4564430D01*
X8632342Y-4560976D01*
X8628684Y-4557928D01*
X8624722Y-4555286D01*
X8620556Y-4553153D01*
X8616188Y-4551426D01*
X8611666Y-4550206D01*
X8607044Y-4549495D01*
G37*
G36*
X8096961Y-4672736D02*
G01*
X8092287Y-4674108D01*
X8088985Y-4678375D01*
X8087106Y-4685588D01*
X8086445Y-4696002D01*
X8086394Y-4703216D01*
X8085937Y-4708702D01*
X8085023Y-4712665D01*
X8083448Y-4715306D01*
X8080959Y-4716780D01*
X8077403Y-4717338D01*
X8072577Y-4717084D01*
X8061909Y-4715967D01*
X8057642Y-4716221D01*
X8053527Y-4717084D01*
X8049666Y-4718456D01*
X8045958Y-4720336D01*
X8042503Y-4722672D01*
X8039303Y-4725416D01*
X8036306Y-4728616D01*
X8033613Y-4732121D01*
X8031175Y-4735982D01*
X8029041Y-4740097D01*
X8027212Y-4744516D01*
X8025688Y-4749088D01*
X8024520Y-4753864D01*
X8023707Y-4758791D01*
X8023250Y-4763820D01*
X8023160Y-4768291D01*
X8044738Y-4768291D01*
X8044840Y-4762855D01*
X8045703Y-4757470D01*
X8047228Y-4752441D01*
X8049412Y-4747818D01*
X8052155Y-4743805D01*
X8055356Y-4740554D01*
X8059064Y-4738217D01*
X8063128Y-4736998D01*
X8067497Y-4736947D01*
X8071916Y-4737811D01*
X8075422Y-4739132D01*
X8078114Y-4741113D01*
X8080095Y-4743907D01*
X8081518Y-4747717D01*
X8082381Y-4752746D01*
X8082838Y-4759147D01*
X8082991Y-4767122D01*
X8082584Y-4774285D01*
X8081518Y-4780483D01*
X8079790Y-4785766D01*
X8077504Y-4790084D01*
X8074812Y-4793335D01*
X8071662Y-4795520D01*
X8068259Y-4796637D01*
X8064601Y-4796536D01*
X8060842Y-4795316D01*
X8057032Y-4792827D01*
X8053171Y-4789017D01*
X8049463Y-4783937D01*
X8047024Y-4779010D01*
X8045450Y-4773777D01*
X8044738Y-4768291D01*
X8023160Y-4768291D01*
X8023402Y-4774031D01*
X8024114Y-4779162D01*
X8025180Y-4784191D01*
X8026704Y-4789220D01*
X8028686Y-4794097D01*
X8031073Y-4798872D01*
X8033969Y-4803394D01*
X8037118Y-4807356D01*
X8040522Y-4810607D01*
X8044332Y-4813198D01*
X8048802Y-4815128D01*
X8053984Y-4816500D01*
X8060131Y-4817364D01*
X8067395Y-4817821D01*
X8107425Y-4817364D01*
X8107425Y-4731105D01*
X8107019Y-4708601D01*
X8106664Y-4699812D01*
X8105444Y-4686554D01*
X8104581Y-4681829D01*
X8103514Y-4678222D01*
X8102244Y-4675632D01*
X8100720Y-4673955D01*
X8098993Y-4672990D01*
G37*
G36*
X8313369Y-4712766D02*
G01*
X8308136Y-4712970D01*
X8302599Y-4713732D01*
X8296706Y-4715052D01*
X8290509Y-4716932D01*
X8283956Y-4719320D01*
X8279434Y-4721860D01*
X8277504Y-4724552D01*
X8277910Y-4727295D01*
X8280450Y-4729886D01*
X8284819Y-4732172D01*
X8290915Y-4734001D01*
X8298434Y-4735220D01*
X8317992Y-4736287D01*
X8325459Y-4738166D01*
X8329828Y-4741418D01*
X8331200Y-4746142D01*
X8329828Y-4750866D01*
X8325459Y-4754118D01*
X8317890Y-4756048D01*
X8301380Y-4756912D01*
X8296148Y-4757775D01*
X8291220Y-4759096D01*
X8286699Y-4760976D01*
X8282635Y-4763262D01*
X8278977Y-4766056D01*
X8275828Y-4769256D01*
X8273186Y-4772812D01*
X8271103Y-4776774D01*
X8269528Y-4781092D01*
X8268614Y-4785715D01*
X8268438Y-4788560D01*
X8289290Y-4788560D01*
X8290559Y-4783683D01*
X8294471Y-4780280D01*
X8301177Y-4778248D01*
X8310829Y-4777638D01*
X8319973Y-4778197D01*
X8326170Y-4779822D01*
X8329371Y-4782566D01*
X8329523Y-4786376D01*
X8326526Y-4790897D01*
X8321344Y-4794300D01*
X8314842Y-4796536D01*
X8307730Y-4797552D01*
X8300821Y-4797298D01*
X8294928Y-4795774D01*
X8290814Y-4792878D01*
X8289290Y-4788560D01*
X8268438Y-4788560D01*
X8268309Y-4790643D01*
X8268766Y-4794656D01*
X8270087Y-4798466D01*
X8272272Y-4802022D01*
X8275269Y-4805273D01*
X8278977Y-4808270D01*
X8283346Y-4810912D01*
X8288375Y-4813249D01*
X8293963Y-4815179D01*
X8300059Y-4816652D01*
X8306612Y-4817719D01*
X8313623Y-4818329D01*
X8320989Y-4818430D01*
X8352180Y-4817821D01*
X8352180Y-4773472D01*
X8352028Y-4765751D01*
X8351469Y-4758537D01*
X8350605Y-4751882D01*
X8349386Y-4745685D01*
X8347811Y-4740046D01*
X8345881Y-4734915D01*
X8343595Y-4730343D01*
X8341004Y-4726279D01*
X8338058Y-4722723D01*
X8334756Y-4719726D01*
X8331149Y-4717237D01*
X8327186Y-4715306D01*
X8322919Y-4713935D01*
X8318296Y-4713071D01*
G37*
G36*
X7877759Y-4714595D02*
G01*
X7872120Y-4715052D01*
X7867243Y-4715967D01*
X7863230Y-4717389D01*
X7860334Y-4719370D01*
X7857185Y-4723130D01*
X7855762Y-4726432D01*
X7856067Y-4729276D01*
X7858099Y-4731562D01*
X7861909Y-4733340D01*
X7867446Y-4734610D01*
X7874711Y-4735423D01*
X7896555Y-4736236D01*
X7905242Y-4738065D01*
X7910118Y-4741316D01*
X7911642Y-4746142D01*
X7910271Y-4750816D01*
X7906054Y-4754118D01*
X7898841Y-4755997D01*
X7888579Y-4756658D01*
X7882128Y-4756861D01*
X7876235Y-4757521D01*
X7870952Y-4758639D01*
X7866227Y-4760214D01*
X7862062Y-4762195D01*
X7858506Y-4764684D01*
X7855508Y-4767580D01*
X7853019Y-4770983D01*
X7851140Y-4774844D01*
X7849768Y-4779162D01*
X7848955Y-4783988D01*
X7848735Y-4788560D01*
X7869681Y-4788560D01*
X7870952Y-4783683D01*
X7874863Y-4780280D01*
X7881569Y-4778248D01*
X7891272Y-4777638D01*
X7900365Y-4778197D01*
X7906613Y-4779822D01*
X7909814Y-4782566D01*
X7909915Y-4786376D01*
X7906918Y-4790897D01*
X7901787Y-4794300D01*
X7895234Y-4796536D01*
X7888122Y-4797552D01*
X7881264Y-4797298D01*
X7875371Y-4795774D01*
X7871206Y-4792878D01*
X7869681Y-4788560D01*
X7848735Y-4788560D01*
X7849057Y-4794097D01*
X7850174Y-4798466D01*
X7852054Y-4802378D01*
X7854645Y-4805883D01*
X7858048Y-4808931D01*
X7862163Y-4811572D01*
X7867091Y-4813757D01*
X7872780Y-4815484D01*
X7879232Y-4816856D01*
X7886496Y-4817770D01*
X7894574Y-4818278D01*
X7903413Y-4818329D01*
X7932623Y-4817922D01*
X7932470Y-4767478D01*
X7931962Y-4758639D01*
X7931099Y-4750816D01*
X7929930Y-4743907D01*
X7928406Y-4738014D01*
X7926476Y-4732985D01*
X7924241Y-4728921D01*
X7921650Y-4725670D01*
X7918297Y-4723079D01*
X7913928Y-4720793D01*
X7908696Y-4718812D01*
X7902854Y-4717186D01*
X7896656Y-4715967D01*
X7890205Y-4715103D01*
X7883855Y-4714646D01*
G37*
G36*
X8131352Y-4714697D02*
G01*
X8126882Y-4715459D01*
X8124240Y-4717796D01*
X8123377Y-4721606D01*
X8124393Y-4726940D01*
X8139430Y-4773218D01*
X8144916Y-4788814D01*
X8149437Y-4800244D01*
X8151368Y-4804562D01*
X8154873Y-4810861D01*
X8156498Y-4812944D01*
X8158022Y-4814417D01*
X8159546Y-4815382D01*
X8161070Y-4815941D01*
X8162645Y-4816094D01*
X8164880Y-4815433D01*
X8167370Y-4813452D01*
X8169909Y-4810353D01*
X8172602Y-4806188D01*
X8175294Y-4801108D01*
X8177936Y-4795113D01*
X8180476Y-4788458D01*
X8193278Y-4746142D01*
X8206943Y-4787646D01*
X8211413Y-4799380D01*
X8215579Y-4807966D01*
X8217611Y-4811014D01*
X8219643Y-4813300D01*
X8221624Y-4814722D01*
X8223605Y-4815382D01*
X8225586Y-4815179D01*
X8227618Y-4814163D01*
X8229701Y-4812284D01*
X8231835Y-4809591D01*
X8234070Y-4806086D01*
X8236356Y-4801717D01*
X8241284Y-4790389D01*
X8246770Y-4775657D01*
X8253323Y-4756200D01*
X8258759Y-4739132D01*
X8261858Y-4727397D01*
X8262569Y-4723333D01*
X8262721Y-4720234D01*
X8262366Y-4717999D01*
X8261502Y-4716627D01*
X8260130Y-4715916D01*
X8258251Y-4715764D01*
X8255914Y-4716018D01*
X8250783Y-4718913D01*
X8245500Y-4725009D01*
X8240775Y-4733645D01*
X8237016Y-4743907D01*
X8232241Y-4759502D01*
X8230108Y-4764989D01*
X8228177Y-4769002D01*
X8226298Y-4771440D01*
X8224469Y-4772355D01*
X8222691Y-4771796D01*
X8220862Y-4769713D01*
X8218931Y-4766106D01*
X8216900Y-4761026D01*
X8210346Y-4739538D01*
X8208264Y-4733594D01*
X8206079Y-4728514D01*
X8203895Y-4724298D01*
X8201710Y-4720945D01*
X8199424Y-4718456D01*
X8197189Y-4716780D01*
X8194903Y-4716018D01*
X8192617Y-4716068D01*
X8190331Y-4717034D01*
X8188045Y-4718862D01*
X8185810Y-4721504D01*
X8183575Y-4725060D01*
X8181390Y-4729480D01*
X8179206Y-4734763D01*
X8174075Y-4750003D01*
X8171332Y-4757521D01*
X8168792Y-4763414D01*
X8166455Y-4767783D01*
X8164271Y-4770526D01*
X8162239Y-4771745D01*
X8160258Y-4771390D01*
X8158327Y-4769510D01*
X8156397Y-4766056D01*
X8154416Y-4761077D01*
X8152384Y-4754626D01*
X8148218Y-4739284D01*
X8146084Y-4732883D01*
X8143849Y-4727397D01*
X8141462Y-4722876D01*
X8139074Y-4719320D01*
X8136534Y-4716780D01*
X8133994Y-4715205D01*
G37*
G36*
X7953603Y-4715662D02*
G01*
X7953705Y-4781550D01*
X7954060Y-4792929D01*
X7954721Y-4801971D01*
X7955686Y-4808880D01*
X7957058Y-4813858D01*
X7958785Y-4817211D01*
X7961020Y-4819040D01*
X7963763Y-4819599D01*
X7966354Y-4819040D01*
X7968589Y-4817465D01*
X7970469Y-4814620D01*
X7972094Y-4810556D01*
X7973415Y-4805070D01*
X7974482Y-4798110D01*
X7975295Y-4789576D01*
X7976717Y-4766614D01*
X7977581Y-4756810D01*
X7978851Y-4749546D01*
X7980730Y-4744364D01*
X7983423Y-4740859D01*
X7987233Y-4738522D01*
X7992364Y-4736947D01*
X8006029Y-4734153D01*
X8011363Y-4732477D01*
X8015071Y-4730648D01*
X8017306Y-4728718D01*
X8018018Y-4726736D01*
X8017306Y-4724806D01*
X8015224Y-4722977D01*
X8011718Y-4721250D01*
X8006943Y-4719726D01*
X8000847Y-4718456D01*
X7993583Y-4717491D01*
X7985099Y-4716932D01*
G37*
G36*
X8372602Y-4716221D02*
G01*
X8375040Y-4772710D01*
X8376158Y-4785664D01*
X8377783Y-4796739D01*
X8379714Y-4805883D01*
X8381847Y-4812893D01*
X8384133Y-4817719D01*
X8385302Y-4819294D01*
X8386419Y-4820208D01*
X8387537Y-4820564D01*
X8388603Y-4820259D01*
X8389620Y-4819345D01*
X8390585Y-4817719D01*
X8391448Y-4815484D01*
X8392261Y-4812538D01*
X8393480Y-4804511D01*
X8394141Y-4793538D01*
X8394395Y-4777486D01*
X8394750Y-4769256D01*
X8395411Y-4762195D01*
X8396427Y-4756150D01*
X8397798Y-4751070D01*
X8399576Y-4746853D01*
X8401862Y-4743399D01*
X8404656Y-4740656D01*
X8408060Y-4738471D01*
X8412073Y-4736795D01*
X8416747Y-4735576D01*
X8428837Y-4733391D01*
X8433866Y-4731918D01*
X8437270Y-4730242D01*
X8439200Y-4728464D01*
X8439607Y-4726584D01*
X8438591Y-4724704D01*
X8436203Y-4722876D01*
X8432546Y-4721250D01*
X8427618Y-4719777D01*
X8421573Y-4718558D01*
X8414359Y-4717694D01*
X8406130Y-4717186D01*
G37*
G36*
X8488172Y-4716322D02*
G01*
X8483193Y-4716729D01*
X8478266Y-4717694D01*
X8473541Y-4719320D01*
X8469020Y-4721606D01*
X8464854Y-4724552D01*
X8460994Y-4728260D01*
X8457692Y-4732274D01*
X8454948Y-4736592D01*
X8452612Y-4741113D01*
X8450697Y-4746142D01*
X8471103Y-4746142D01*
X8472271Y-4741824D01*
X8475624Y-4738522D01*
X8480907Y-4736388D01*
X8487816Y-4735677D01*
X8494623Y-4736490D01*
X8500821Y-4738725D01*
X8505698Y-4742078D01*
X8508593Y-4746142D01*
X8509406Y-4751120D01*
X8507171Y-4754372D01*
X8501430Y-4756099D01*
X8491829Y-4756658D01*
X8482787Y-4755997D01*
X8476284Y-4754016D01*
X8472373Y-4750714D01*
X8471103Y-4746142D01*
X8450697Y-4746142D01*
X8449411Y-4750714D01*
X8448497Y-4755692D01*
X8447989Y-4760722D01*
X8447938Y-4765802D01*
X8448243Y-4770831D01*
X8448954Y-4775860D01*
X8450021Y-4780788D01*
X8451494Y-4785614D01*
X8453272Y-4790236D01*
X8455406Y-4794707D01*
X8457844Y-4798923D01*
X8460638Y-4802835D01*
X8463686Y-4806442D01*
X8467039Y-4809693D01*
X8470646Y-4812538D01*
X8474506Y-4814976D01*
X8478621Y-4816957D01*
X8482939Y-4818380D01*
X8487511Y-4819294D01*
X8492286Y-4819599D01*
X8500364Y-4818735D01*
X8508288Y-4816500D01*
X8515146Y-4813147D01*
X8520023Y-4809083D01*
X8522970Y-4805375D01*
X8524697Y-4802479D01*
X8524951Y-4800346D01*
X8523478Y-4798771D01*
X8520125Y-4797704D01*
X8514588Y-4796942D01*
X8496198Y-4795926D01*
X8488629Y-4795316D01*
X8482533Y-4794148D01*
X8477961Y-4792624D01*
X8474811Y-4790795D01*
X8473186Y-4788712D01*
X8472932Y-4786528D01*
X8474100Y-4784344D01*
X8476640Y-4782159D01*
X8480602Y-4780229D01*
X8485835Y-4778502D01*
X8492439Y-4777181D01*
X8508796Y-4775555D01*
X8515654Y-4774590D01*
X8521039Y-4773320D01*
X8525205Y-4771644D01*
X8528253Y-4769408D01*
X8530386Y-4766614D01*
X8531809Y-4763109D01*
X8532723Y-4758842D01*
X8533028Y-4753660D01*
X8532571Y-4748682D01*
X8531352Y-4743958D01*
X8529523Y-4739538D01*
X8527034Y-4735423D01*
X8524036Y-4731613D01*
X8520531Y-4728159D01*
X8516620Y-4725111D01*
X8512403Y-4722469D01*
X8507831Y-4720234D01*
X8503107Y-4718507D01*
X8498179Y-4717237D01*
X8493201Y-4716526D01*
G37*
D10*
X3986786Y-5431035D02*
G01*
X3986786Y-5320291D01*
X3968498Y-5320291D01*
X3949956Y-5329435D01*
X3940812Y-5338579D01*
X3931414Y-5357121D01*
X3931414Y-5384807D01*
X3940812Y-5403349D01*
X3959100Y-5421891D01*
X3986786Y-5431035D01*
X4005328Y-5431035D01*
X4033014Y-5421891D01*
X4051556Y-5403349D01*
X4060700Y-5384807D01*
X4060700Y-5357121D01*
X4051556Y-5338579D01*
X4033014Y-5320291D01*
X3986786Y-5259331D02*
G01*
X3986786Y-5148333D01*
X3968498Y-5148333D01*
X3949956Y-5157731D01*
X3940812Y-5166875D01*
X3931414Y-5185417D01*
X3931414Y-5213103D01*
X3940812Y-5231645D01*
X3959100Y-5249933D01*
X3986786Y-5259331D01*
X4005328Y-5259331D01*
X4033014Y-5249933D01*
X4051556Y-5231645D01*
X4060700Y-5213103D01*
X4060700Y-5185417D01*
X4051556Y-5166875D01*
X4033014Y-5148333D01*
X3931414Y-5087373D02*
G01*
X4125470Y-5087373D01*
X3959100Y-5087373D02*
G01*
X3940812Y-5069085D01*
X3931414Y-5050543D01*
X3931414Y-5022857D01*
X3940812Y-5004315D01*
X3959100Y-4985773D01*
X3986786Y-4976629D01*
X4005328Y-4976629D01*
X4033014Y-4985773D01*
X4051556Y-5004315D01*
X4060700Y-5022857D01*
X4060700Y-5050543D01*
X4051556Y-5069085D01*
X4033014Y-5087373D01*
X3931414Y-4915669D02*
G01*
X4060700Y-4915669D01*
X3986786Y-4915669D02*
G01*
X3959100Y-4906525D01*
X3940812Y-4887983D01*
X3931414Y-4869441D01*
X3931414Y-4841755D01*
X3931414Y-4734567D02*
G01*
X3940812Y-4753109D01*
X3959100Y-4771651D01*
X3986786Y-4780795D01*
X4005328Y-4780795D01*
X4033014Y-4771651D01*
X4051556Y-4753109D01*
X4060700Y-4734567D01*
X4060700Y-4706881D01*
X4051556Y-4688339D01*
X4033014Y-4670051D01*
X4005328Y-4660653D01*
X3986786Y-4660653D01*
X3959100Y-4670051D01*
X3940812Y-4688339D01*
X3931414Y-4706881D01*
X3931414Y-4734567D01*
X3931414Y-4488949D02*
G01*
X4079242Y-4488949D01*
X4106928Y-4498093D01*
X4116072Y-4507491D01*
X4125470Y-4525779D01*
X4125470Y-4553465D01*
X4116072Y-4572007D01*
X3959100Y-4488949D02*
G01*
X3940812Y-4507491D01*
X3931414Y-4525779D01*
X3931414Y-4553465D01*
X3940812Y-4572007D01*
X3959100Y-4590549D01*
X3986786Y-4599693D01*
X4005328Y-4599693D01*
X4033014Y-4590549D01*
X4051556Y-4572007D01*
X4060700Y-4553465D01*
X4060700Y-4525779D01*
X4051556Y-4507491D01*
X4033014Y-4488949D01*
X3931414Y-4285749D02*
G01*
X4060700Y-4285749D01*
X3986786Y-4285749D02*
G01*
X3959100Y-4276605D01*
X3940812Y-4258063D01*
X3931414Y-4239521D01*
X3931414Y-4211835D01*
X3986786Y-4150875D02*
G01*
X3986786Y-4040131D01*
X3968498Y-4040131D01*
X3949956Y-4049275D01*
X3940812Y-4058419D01*
X3931414Y-4076961D01*
X3931414Y-4104647D01*
X3940812Y-4123189D01*
X3959100Y-4141731D01*
X3986786Y-4150875D01*
X4005328Y-4150875D01*
X4033014Y-4141731D01*
X4051556Y-4123189D01*
X4060700Y-4104647D01*
X4060700Y-4076961D01*
X4051556Y-4058419D01*
X4033014Y-4040131D01*
X3931414Y-3979171D02*
G01*
X4060700Y-3923545D01*
X3931414Y-3868173D02*
G01*
X4060700Y-3923545D01*
X3866898Y-3807213D02*
G01*
X3876042Y-3798069D01*
X3866898Y-3788925D01*
X3857500Y-3798069D01*
X3866898Y-3807213D01*
X3931414Y-3798069D02*
G01*
X4060700Y-3798069D01*
X3959100Y-3626365D02*
G01*
X3940812Y-3635509D01*
X3931414Y-3663195D01*
X3931414Y-3690881D01*
X3940812Y-3718567D01*
X3959100Y-3727965D01*
X3977642Y-3718567D01*
X3986786Y-3700025D01*
X3996184Y-3654051D01*
X4005328Y-3635509D01*
X4023870Y-3626365D01*
X4033014Y-3626365D01*
X4051556Y-3635509D01*
X4060700Y-3663195D01*
X4060700Y-3690881D01*
X4051556Y-3718567D01*
X4033014Y-3727965D01*
X3866898Y-3565405D02*
G01*
X3876042Y-3556007D01*
X3866898Y-3546863D01*
X3857500Y-3556007D01*
X3866898Y-3565405D01*
X3931414Y-3556007D02*
G01*
X4060700Y-3556007D01*
X3931414Y-3439675D02*
G01*
X3940812Y-3458217D01*
X3959100Y-3476505D01*
X3986786Y-3485903D01*
X4005328Y-3485903D01*
X4033014Y-3476505D01*
X4051556Y-3458217D01*
X4060700Y-3439675D01*
X4060700Y-3411989D01*
X4051556Y-3393447D01*
X4033014Y-3374905D01*
X4005328Y-3365761D01*
X3986786Y-3365761D01*
X3959100Y-3374905D01*
X3940812Y-3393447D01*
X3931414Y-3411989D01*
X3931414Y-3439675D01*
X3931414Y-3304801D02*
G01*
X4060700Y-3304801D01*
X3968498Y-3304801D02*
G01*
X3940812Y-3277115D01*
X3931414Y-3258573D01*
X3931414Y-3230887D01*
X3940812Y-3212345D01*
X3968498Y-3203201D01*
X4060700Y-3203201D01*
X3959100Y-2889257D02*
G01*
X3940812Y-2907545D01*
X3931414Y-2926087D01*
X3931414Y-2953773D01*
X3940812Y-2972315D01*
X3959100Y-2990857D01*
X3986786Y-3000001D01*
X4005328Y-3000001D01*
X4033014Y-2990857D01*
X4051556Y-2972315D01*
X4060700Y-2953773D01*
X4060700Y-2926087D01*
X4051556Y-2907545D01*
X4033014Y-2889257D01*
X4217672Y-5421891D02*
G01*
X4208528Y-5421891D01*
X4189986Y-5412493D01*
X4180842Y-5403349D01*
X4171698Y-5384807D01*
X4171698Y-5347977D01*
X4180842Y-5329435D01*
X4189986Y-5320291D01*
X4208528Y-5310893D01*
X4227070Y-5310893D01*
X4245612Y-5320291D01*
X4273298Y-5338579D01*
X4365500Y-5431035D01*
X4365500Y-5301749D01*
X4171698Y-5185417D02*
G01*
X4180842Y-5213103D01*
X4208528Y-5231645D01*
X4254756Y-5240789D01*
X4282442Y-5240789D01*
X4328670Y-5231645D01*
X4356356Y-5213103D01*
X4365500Y-5185417D01*
X4365500Y-5166875D01*
X4356356Y-5139189D01*
X4328670Y-5120647D01*
X4282442Y-5111503D01*
X4254756Y-5111503D01*
X4208528Y-5120647D01*
X4180842Y-5139189D01*
X4171698Y-5166875D01*
X4171698Y-5185417D01*
X4208528Y-5050543D02*
G01*
X4199384Y-5032001D01*
X4171698Y-5004315D01*
X4365500Y-5004315D01*
X4236214Y-4823213D02*
G01*
X4263900Y-4832611D01*
X4282442Y-4850899D01*
X4291586Y-4878585D01*
X4291586Y-4887983D01*
X4282442Y-4915669D01*
X4263900Y-4934211D01*
X4236214Y-4943355D01*
X4227070Y-4943355D01*
X4199384Y-4934211D01*
X4180842Y-4915669D01*
X4171698Y-4887983D01*
X4171698Y-4878585D01*
X4180842Y-4850899D01*
X4199384Y-4832611D01*
X4236214Y-4823213D01*
X4282442Y-4823213D01*
X4328670Y-4832611D01*
X4356356Y-4850899D01*
X4365500Y-4878585D01*
X4365500Y-4897127D01*
X4356356Y-4924813D01*
X4337814Y-4934211D01*
X4134614Y-4596137D02*
G01*
X4430270Y-4762253D01*
X4171698Y-4479805D02*
G01*
X4180842Y-4507491D01*
X4208528Y-4525779D01*
X4254756Y-4535177D01*
X4282442Y-4535177D01*
X4328670Y-4525779D01*
X4356356Y-4507491D01*
X4365500Y-4479805D01*
X4365500Y-4461263D01*
X4356356Y-4433577D01*
X4328670Y-4415035D01*
X4282442Y-4405891D01*
X4254756Y-4405891D01*
X4208528Y-4415035D01*
X4180842Y-4433577D01*
X4171698Y-4461263D01*
X4171698Y-4479805D01*
X4171698Y-4233933D02*
G01*
X4171698Y-4326389D01*
X4254756Y-4335533D01*
X4245612Y-4326389D01*
X4236214Y-4298703D01*
X4236214Y-4271017D01*
X4245612Y-4243331D01*
X4263900Y-4224789D01*
X4291586Y-4215645D01*
X4310128Y-4215645D01*
X4337814Y-4224789D01*
X4356356Y-4243331D01*
X4365500Y-4271017D01*
X4365500Y-4298703D01*
X4356356Y-4326389D01*
X4347212Y-4335533D01*
X4328670Y-4344931D01*
X4134614Y-3988315D02*
G01*
X4430270Y-4154685D01*
X4171698Y-3871983D02*
G01*
X4180842Y-3899669D01*
X4208528Y-3918211D01*
X4254756Y-3927355D01*
X4282442Y-3927355D01*
X4328670Y-3918211D01*
X4356356Y-3899669D01*
X4365500Y-3871983D01*
X4365500Y-3853441D01*
X4356356Y-3825755D01*
X4328670Y-3807213D01*
X4282442Y-3798069D01*
X4254756Y-3798069D01*
X4208528Y-3807213D01*
X4180842Y-3825755D01*
X4171698Y-3853441D01*
X4171698Y-3871983D01*
X4199384Y-3626365D02*
G01*
X4180842Y-3635509D01*
X4171698Y-3663195D01*
X4171698Y-3681737D01*
X4180842Y-3709423D01*
X4208528Y-3727965D01*
X4254756Y-3737109D01*
X4300984Y-3737109D01*
X4337814Y-3727965D01*
X4356356Y-3709423D01*
X4365500Y-3681737D01*
X4365500Y-3672339D01*
X4356356Y-3644653D01*
X4337814Y-3626365D01*
X4310128Y-3616967D01*
X4300984Y-3616967D01*
X4273298Y-3626365D01*
X4254756Y-3644653D01*
X4245612Y-3672339D01*
X4245612Y-3681737D01*
X4254756Y-3709423D01*
X4273298Y-3727965D01*
X4300984Y-3737109D01*
D11*
X3574034Y-4316729D02*
G01*
X3657091Y-4316729D01*
X3672586Y-4322063D01*
X3677920Y-4327144D01*
X3683000Y-4337557D01*
X3683000Y-4347971D01*
X3677920Y-4358386D01*
X3672586Y-4363720D01*
X3657091Y-4368800D01*
X3646677Y-4368800D01*
X3594608Y-4282439D02*
G01*
X3589527Y-4272279D01*
X3574034Y-4256531D01*
X3683000Y-4256531D01*
X6435343Y-2060955D02*
G01*
X6430772Y-2063242D01*
X6426200Y-2067813D01*
X6423913Y-2072386D01*
X6423913Y-2081529D01*
X6426200Y-2086355D01*
X6430772Y-2090928D01*
X6435343Y-2093213D01*
X6442456Y-2095500D01*
X6453886Y-2095500D01*
X6460743Y-2093213D01*
X6465570Y-2090928D01*
X6470141Y-2086355D01*
X6472427Y-2081529D01*
X6472427Y-2072386D01*
X6470141Y-2067813D01*
X6465570Y-2063242D01*
X6460743Y-2060955D01*
X6453886Y-2060955D01*
X6453886Y-2072386D02*
G01*
X6453886Y-2060955D01*
X6423913Y-2045715D02*
G01*
X6472427Y-2045715D01*
X6423913Y-2045715D02*
G01*
X6472427Y-2013204D01*
X6423913Y-2013204D02*
G01*
X6472427Y-2013204D01*
X6423913Y-1997963D02*
G01*
X6472427Y-1997963D01*
X6423913Y-1997963D02*
G01*
X6423913Y-1981962D01*
X6426200Y-1974850D01*
X6430772Y-1970278D01*
X6435343Y-1967992D01*
X6442456Y-1965705D01*
X6453886Y-1965705D01*
X6460743Y-1967992D01*
X6465570Y-1970278D01*
X6470141Y-1974850D01*
X6472427Y-1981962D01*
X6472427Y-1997963D01*
X6181343Y-2060955D02*
G01*
X6176772Y-2063242D01*
X6172200Y-2067813D01*
X6169913Y-2072386D01*
X6169913Y-2081529D01*
X6172200Y-2086355D01*
X6176772Y-2090928D01*
X6181343Y-2093213D01*
X6188456Y-2095500D01*
X6199886Y-2095500D01*
X6206743Y-2093213D01*
X6211570Y-2090928D01*
X6216141Y-2086355D01*
X6218427Y-2081529D01*
X6218427Y-2072386D01*
X6216141Y-2067813D01*
X6211570Y-2063242D01*
X6206743Y-2060955D01*
X6199886Y-2060955D01*
X6199886Y-2072386D02*
G01*
X6199886Y-2060955D01*
X6169913Y-2045715D02*
G01*
X6218427Y-2045715D01*
X6169913Y-2045715D02*
G01*
X6218427Y-2013204D01*
X6169913Y-2013204D02*
G01*
X6218427Y-2013204D01*
X6169913Y-1997963D02*
G01*
X6218427Y-1997963D01*
X6169913Y-1997963D02*
G01*
X6169913Y-1981962D01*
X6172200Y-1974850D01*
X6176772Y-1970278D01*
X6181343Y-1967992D01*
X6188456Y-1965705D01*
X6199886Y-1965705D01*
X6206743Y-1967992D01*
X6211570Y-1970278D01*
X6216141Y-1974850D01*
X6218427Y-1981962D01*
X6218427Y-1997963D01*
X6684772Y-2074671D02*
G01*
X6726427Y-2074671D01*
X6705600Y-2095500D02*
G01*
X6705600Y-2053844D01*
X6677913Y-2010918D02*
G01*
X6677913Y-2034031D01*
X6698741Y-2036318D01*
X6696456Y-2034031D01*
X6694170Y-2027173D01*
X6694170Y-2020315D01*
X6696456Y-2013204D01*
X6701027Y-2008631D01*
X6707886Y-2006345D01*
X6712458Y-2006345D01*
X6719570Y-2008631D01*
X6724141Y-2013204D01*
X6726427Y-2020315D01*
X6726427Y-2027173D01*
X6724141Y-2034031D01*
X6721856Y-2036318D01*
X6717029Y-2038604D01*
X6677913Y-1991105D02*
G01*
X6726427Y-1972563D01*
X6677913Y-1954276D02*
G01*
X6726427Y-1972563D01*
X7185913Y-2095500D02*
G01*
X7234427Y-2095500D01*
X7185913Y-2095500D02*
G01*
X7185913Y-2074671D01*
X7188200Y-2067813D01*
X7190486Y-2065528D01*
X7195058Y-2063242D01*
X7199629Y-2063242D01*
X7204456Y-2065528D01*
X7206741Y-2067813D01*
X7209027Y-2074671D01*
X7209027Y-2095500D01*
X7209027Y-2079244D02*
G01*
X7234427Y-2063242D01*
X7192772Y-2015489D02*
G01*
X7188200Y-2020315D01*
X7185913Y-2027173D01*
X7185913Y-2036318D01*
X7188200Y-2043429D01*
X7192772Y-2048002D01*
X7197343Y-2048002D01*
X7202170Y-2045715D01*
X7204456Y-2043429D01*
X7206741Y-2038604D01*
X7211313Y-2024887D01*
X7213600Y-2020315D01*
X7215886Y-2018029D01*
X7220458Y-2015489D01*
X7227570Y-2015489D01*
X7232141Y-2020315D01*
X7234427Y-2027173D01*
X7234427Y-2036318D01*
X7232141Y-2043429D01*
X7227570Y-2048002D01*
X7185913Y-1984247D02*
G01*
X7234427Y-1984247D01*
X7185913Y-2000250D02*
G01*
X7185913Y-1967992D01*
X5915913Y-2095500D02*
G01*
X5964427Y-2076957D01*
X5915913Y-2058670D02*
G01*
X5964427Y-2076957D01*
X5915913Y-2043429D02*
G01*
X5964427Y-2043429D01*
X5915913Y-2028189D02*
G01*
X5964427Y-2028189D01*
X5915913Y-2028189D02*
G01*
X5964427Y-1995678D01*
X5915913Y-1995678D02*
G01*
X5964427Y-1995678D01*
X6938772Y-2074671D02*
G01*
X6980427Y-2074671D01*
X6959600Y-2095500D02*
G01*
X6959600Y-2053844D01*
X6931913Y-2034031D02*
G01*
X6931913Y-2008631D01*
X6950456Y-2022602D01*
X6950456Y-2015489D01*
X6952741Y-2010918D01*
X6955027Y-2008631D01*
X6961886Y-2006345D01*
X6966458Y-2006345D01*
X6973570Y-2008631D01*
X6978141Y-2013204D01*
X6980427Y-2020315D01*
X6980427Y-2027173D01*
X6978141Y-2034031D01*
X6975856Y-2036318D01*
X6971029Y-2038604D01*
X6968743Y-1988820D02*
G01*
X6971029Y-1991105D01*
X6973570Y-1988820D01*
X6971029Y-1986534D01*
X6968743Y-1988820D01*
X6931913Y-1966721D02*
G01*
X6931913Y-1941321D01*
X6950456Y-1955037D01*
X6950456Y-1948179D01*
X6952741Y-1943607D01*
X6955027Y-1941321D01*
X6961886Y-1939036D01*
X6966458Y-1939036D01*
X6973570Y-1941321D01*
X6978141Y-1945894D01*
X6980427Y-1952752D01*
X6980427Y-1959610D01*
X6978141Y-1966721D01*
X6975856Y-1969007D01*
X6971029Y-1971294D01*
X6931913Y-1923795D02*
G01*
X6980427Y-1905254D01*
X6931913Y-1886712D02*
G01*
X6980427Y-1905254D01*
X5407913Y-2081529D02*
G01*
X5410200Y-2088642D01*
X5417058Y-2093213D01*
X5428741Y-2095500D01*
X5435600Y-2095500D01*
X5447029Y-2093213D01*
X5454141Y-2088642D01*
X5456427Y-2081529D01*
X5456427Y-2076957D01*
X5454141Y-2070100D01*
X5447029Y-2065528D01*
X5435600Y-2063242D01*
X5428741Y-2063242D01*
X5417058Y-2065528D01*
X5410200Y-2070100D01*
X5407913Y-2076957D01*
X5407913Y-2081529D01*
X5163058Y-2095500D02*
G01*
X5160772Y-2090928D01*
X5153913Y-2084070D01*
X5202427Y-2084070D01*
X4911343Y-2093213D02*
G01*
X4909058Y-2093213D01*
X4904486Y-2090928D01*
X4902200Y-2088642D01*
X4899913Y-2084070D01*
X4899913Y-2074671D01*
X4902200Y-2070100D01*
X4904486Y-2067813D01*
X4909058Y-2065528D01*
X4913629Y-2065528D01*
X4918456Y-2067813D01*
X4925313Y-2072386D01*
X4948427Y-2095500D01*
X4948427Y-2063242D01*
X4645913Y-2090928D02*
G01*
X4645913Y-2065528D01*
X4664456Y-2079244D01*
X4664456Y-2072386D01*
X4666741Y-2067813D01*
X4669027Y-2065528D01*
X4675886Y-2063242D01*
X4680458Y-2063242D01*
X4687570Y-2065528D01*
X4692141Y-2070100D01*
X4694427Y-2076957D01*
X4694427Y-2084070D01*
X4692141Y-2090928D01*
X4689856Y-2093213D01*
X4685029Y-2095500D01*
X4391913Y-2072386D02*
G01*
X4424172Y-2095500D01*
X4424172Y-2060955D01*
X4391913Y-2072386D02*
G01*
X4440427Y-2072386D01*
X4137913Y-2067813D02*
G01*
X4137913Y-2090928D01*
X4158741Y-2093213D01*
X4156456Y-2090928D01*
X4154170Y-2084070D01*
X4154170Y-2076957D01*
X4156456Y-2070100D01*
X4161027Y-2065528D01*
X4167886Y-2063242D01*
X4172458Y-2063242D01*
X4179570Y-2065528D01*
X4184141Y-2070100D01*
X4186427Y-2076957D01*
X4186427Y-2084070D01*
X4184141Y-2090928D01*
X4181856Y-2093213D01*
X4177029Y-2095500D01*
X4430013Y-2330957D02*
G01*
X4478527Y-2349500D01*
X4430013Y-2330957D02*
G01*
X4478527Y-2312670D01*
X4462272Y-2342642D02*
G01*
X4462272Y-2319528D01*
X4446270Y-2297429D02*
G01*
X4478527Y-2297429D01*
X4455413Y-2297429D02*
G01*
X4448556Y-2290318D01*
X4446270Y-2285745D01*
X4446270Y-2278887D01*
X4448556Y-2274315D01*
X4455413Y-2272029D01*
X4478527Y-2272029D01*
X4446270Y-2228850D02*
G01*
X4478527Y-2228850D01*
X4453127Y-2228850D02*
G01*
X4448556Y-2233676D01*
X4446270Y-2238247D01*
X4446270Y-2245105D01*
X4448556Y-2249678D01*
X4453127Y-2254250D01*
X4459986Y-2256789D01*
X4464558Y-2256789D01*
X4471670Y-2254250D01*
X4476241Y-2249678D01*
X4478527Y-2245105D01*
X4478527Y-2238247D01*
X4476241Y-2233676D01*
X4471670Y-2228850D01*
X4430013Y-2213610D02*
G01*
X4478527Y-2213610D01*
X4446270Y-2186939D02*
G01*
X4448556Y-2191512D01*
X4453127Y-2196084D01*
X4459986Y-2198370D01*
X4464558Y-2198370D01*
X4471670Y-2196084D01*
X4476241Y-2191512D01*
X4478527Y-2186939D01*
X4478527Y-2180081D01*
X4476241Y-2175510D01*
X4471670Y-2170684D01*
X4464558Y-2168397D01*
X4459986Y-2168397D01*
X4453127Y-2170684D01*
X4448556Y-2175510D01*
X4446270Y-2180081D01*
X4446270Y-2186939D01*
X4446270Y-2125471D02*
G01*
X4483100Y-2125471D01*
X4489958Y-2127757D01*
X4492243Y-2130044D01*
X4494529Y-2134870D01*
X4494529Y-2141728D01*
X4492243Y-2146300D01*
X4453127Y-2125471D02*
G01*
X4448556Y-2130044D01*
X4446270Y-2134870D01*
X4446270Y-2141728D01*
X4448556Y-2146300D01*
X4453127Y-2150871D01*
X4459986Y-2153157D01*
X4464558Y-2153157D01*
X4471670Y-2150871D01*
X4476241Y-2146300D01*
X4478527Y-2141728D01*
X4478527Y-2134870D01*
X4476241Y-2130044D01*
X4471670Y-2125471D01*
X4430013Y-2074671D02*
G01*
X4478527Y-2074671D01*
X4446270Y-2059431D02*
G01*
X4478527Y-2059431D01*
X4455413Y-2059431D02*
G01*
X4448556Y-2052573D01*
X4446270Y-2048002D01*
X4446270Y-2040889D01*
X4448556Y-2036318D01*
X4455413Y-2034031D01*
X4478527Y-2034031D01*
X7933943Y-6620255D02*
G01*
X7929372Y-6622542D01*
X7924800Y-6627113D01*
X7922513Y-6631686D01*
X7922513Y-6640829D01*
X7924800Y-6645655D01*
X7929372Y-6650228D01*
X7933943Y-6652513D01*
X7941056Y-6654800D01*
X7952486Y-6654800D01*
X7959343Y-6652513D01*
X7964170Y-6650228D01*
X7968741Y-6645655D01*
X7971027Y-6640829D01*
X7971027Y-6631686D01*
X7968741Y-6627113D01*
X7964170Y-6622542D01*
X7959343Y-6620255D01*
X7952486Y-6620255D01*
X7952486Y-6631686D02*
G01*
X7952486Y-6620255D01*
X7922513Y-6605015D02*
G01*
X7971027Y-6605015D01*
X7922513Y-6605015D02*
G01*
X7971027Y-6572504D01*
X7922513Y-6572504D02*
G01*
X7971027Y-6572504D01*
X7922513Y-6557263D02*
G01*
X7971027Y-6557263D01*
X7922513Y-6557263D02*
G01*
X7922513Y-6541262D01*
X7924800Y-6534150D01*
X7929372Y-6529578D01*
X7933943Y-6527292D01*
X7941056Y-6525005D01*
X7952486Y-6525005D01*
X7959343Y-6527292D01*
X7964170Y-6529578D01*
X7968741Y-6534150D01*
X7971027Y-6541262D01*
X7971027Y-6557263D01*
X7677658Y-6654800D02*
G01*
X7675372Y-6650228D01*
X7668513Y-6643370D01*
X7717027Y-6643370D01*
X7668513Y-6623304D02*
G01*
X7668513Y-6597904D01*
X7687056Y-6611873D01*
X7687056Y-6605015D01*
X7689341Y-6600189D01*
X7691627Y-6597904D01*
X7698486Y-6595618D01*
X7703058Y-6595618D01*
X7710170Y-6597904D01*
X7714741Y-6602729D01*
X7717027Y-6609587D01*
X7717027Y-6616445D01*
X7714741Y-6623304D01*
X7712456Y-6625589D01*
X7707629Y-6628129D01*
X7423658Y-6654800D02*
G01*
X7421372Y-6650228D01*
X7414513Y-6643370D01*
X7463027Y-6643370D01*
X7425943Y-6625589D02*
G01*
X7423658Y-6625589D01*
X7419086Y-6623304D01*
X7416800Y-6621018D01*
X7414513Y-6616445D01*
X7414513Y-6607302D01*
X7416800Y-6602729D01*
X7419086Y-6600189D01*
X7423658Y-6597904D01*
X7428229Y-6597904D01*
X7433056Y-6600189D01*
X7439913Y-6605015D01*
X7463027Y-6628129D01*
X7463027Y-6595618D01*
X7169658Y-6654800D02*
G01*
X7167372Y-6650228D01*
X7160513Y-6643370D01*
X7209027Y-6643370D01*
X7169658Y-6628129D02*
G01*
X7167372Y-6623304D01*
X7160513Y-6616445D01*
X7209027Y-6616445D01*
X8176513Y-6636258D02*
G01*
X8225027Y-6654800D01*
X8176513Y-6636258D02*
G01*
X8225027Y-6617970D01*
X8208772Y-6647942D02*
G01*
X8208772Y-6624828D01*
X8176513Y-6602729D02*
G01*
X8225027Y-6602729D01*
X8176513Y-6602729D02*
G01*
X8176513Y-6581902D01*
X8178800Y-6574789D01*
X8181086Y-6572504D01*
X8185658Y-6570218D01*
X8190229Y-6570218D01*
X8195056Y-6572504D01*
X8197341Y-6574789D01*
X8199627Y-6581902D01*
X8199627Y-6602729D01*
X8199627Y-6586473D02*
G01*
X8225027Y-6570218D01*
X8176513Y-6554978D02*
G01*
X8225027Y-6554978D01*
X8176513Y-6554978D02*
G01*
X8176513Y-6525005D01*
X8199627Y-6554978D02*
G01*
X8199627Y-6536689D01*
X8225027Y-6554978D02*
G01*
X8225027Y-6525005D01*
X8176513Y-6509765D02*
G01*
X8225027Y-6509765D01*
X8176513Y-6509765D02*
G01*
X8176513Y-6479794D01*
X8199627Y-6509765D02*
G01*
X8199627Y-6491223D01*
X6915658Y-6654800D02*
G01*
X6913372Y-6650228D01*
X6906513Y-6643370D01*
X6955027Y-6643370D01*
X6906513Y-6614160D02*
G01*
X6908800Y-6621018D01*
X6915658Y-6625589D01*
X6927341Y-6628129D01*
X6934200Y-6628129D01*
X6945629Y-6625589D01*
X6952741Y-6621018D01*
X6955027Y-6614160D01*
X6955027Y-6609587D01*
X6952741Y-6602729D01*
X6945629Y-6597904D01*
X6934200Y-6595618D01*
X6927341Y-6595618D01*
X6915658Y-6597904D01*
X6908800Y-6602729D01*
X6906513Y-6609587D01*
X6906513Y-6614160D01*
X6668770Y-6624828D02*
G01*
X6675627Y-6627113D01*
X6680200Y-6631686D01*
X6682486Y-6638544D01*
X6682486Y-6640829D01*
X6680200Y-6647942D01*
X6675627Y-6652513D01*
X6668770Y-6654800D01*
X6666229Y-6654800D01*
X6659372Y-6652513D01*
X6654800Y-6647942D01*
X6652513Y-6640829D01*
X6652513Y-6638544D01*
X6654800Y-6631686D01*
X6659372Y-6627113D01*
X6668770Y-6624828D01*
X6680200Y-6624828D01*
X6691629Y-6627113D01*
X6698741Y-6631686D01*
X6701027Y-6638544D01*
X6701027Y-6643370D01*
X6698741Y-6650228D01*
X6694170Y-6652513D01*
X6398513Y-6643370D02*
G01*
X6400800Y-6650228D01*
X6405372Y-6652513D01*
X6409943Y-6652513D01*
X6414770Y-6650228D01*
X6417056Y-6645655D01*
X6419341Y-6636258D01*
X6421627Y-6629400D01*
X6426200Y-6624828D01*
X6430772Y-6622542D01*
X6437629Y-6622542D01*
X6442456Y-6624828D01*
X6444741Y-6627113D01*
X6447027Y-6633971D01*
X6447027Y-6643370D01*
X6444741Y-6650228D01*
X6442456Y-6652513D01*
X6437629Y-6654800D01*
X6430772Y-6654800D01*
X6426200Y-6652513D01*
X6421627Y-6647942D01*
X6419341Y-6640829D01*
X6417056Y-6631686D01*
X6414770Y-6627113D01*
X6409943Y-6624828D01*
X6405372Y-6624828D01*
X6400800Y-6627113D01*
X6398513Y-6633971D01*
X6398513Y-6643370D01*
X6017513Y-6622542D02*
G01*
X6066027Y-6645655D01*
X6017513Y-6654800D02*
G01*
X6017513Y-6622542D01*
X5770372Y-6627113D02*
G01*
X5765800Y-6629400D01*
X5763513Y-6636258D01*
X5763513Y-6640829D01*
X5765800Y-6647942D01*
X5772658Y-6652513D01*
X5784341Y-6654800D01*
X5795772Y-6654800D01*
X5805170Y-6652513D01*
X5809741Y-6647942D01*
X5812027Y-6640829D01*
X5812027Y-6638544D01*
X5809741Y-6631686D01*
X5805170Y-6627113D01*
X5798058Y-6624828D01*
X5795772Y-6624828D01*
X5788913Y-6627113D01*
X5784341Y-6631686D01*
X5782056Y-6638544D01*
X5782056Y-6640829D01*
X5784341Y-6647942D01*
X5788913Y-6652513D01*
X5795772Y-6654800D01*
X5509513Y-6627113D02*
G01*
X5509513Y-6650228D01*
X5530341Y-6652513D01*
X5528056Y-6650228D01*
X5525770Y-6643370D01*
X5525770Y-6636258D01*
X5528056Y-6629400D01*
X5532627Y-6624828D01*
X5539486Y-6622542D01*
X5544058Y-6622542D01*
X5551170Y-6624828D01*
X5555741Y-6629400D01*
X5558027Y-6636258D01*
X5558027Y-6643370D01*
X5555741Y-6650228D01*
X5553456Y-6652513D01*
X5548629Y-6654800D01*
X5255513Y-6631686D02*
G01*
X5287772Y-6654800D01*
X5287772Y-6620255D01*
X5255513Y-6631686D02*
G01*
X5304027Y-6631686D01*
X5001513Y-6650228D02*
G01*
X5001513Y-6624828D01*
X5020056Y-6638544D01*
X5020056Y-6631686D01*
X5022341Y-6627113D01*
X5024627Y-6624828D01*
X5031486Y-6622542D01*
X5036058Y-6622542D01*
X5043170Y-6624828D01*
X5047741Y-6629400D01*
X5050027Y-6636258D01*
X5050027Y-6643370D01*
X5047741Y-6650228D01*
X5045456Y-6652513D01*
X5040629Y-6654800D01*
X4758943Y-6652513D02*
G01*
X4756658Y-6652513D01*
X4752086Y-6650228D01*
X4749800Y-6647942D01*
X4747513Y-6643370D01*
X4747513Y-6633971D01*
X4749800Y-6629400D01*
X4752086Y-6627113D01*
X4756658Y-6624828D01*
X4761229Y-6624828D01*
X4766056Y-6627113D01*
X4772913Y-6631686D01*
X4796027Y-6654800D01*
X4796027Y-6622542D01*
X4493513Y-6638544D02*
G01*
X4542027Y-6638544D01*
X4493513Y-6654800D02*
G01*
X4493513Y-6622542D01*
X4493513Y-6607302D02*
G01*
X4542027Y-6574789D01*
X4493513Y-6574789D02*
G01*
X4542027Y-6607302D01*
X4239513Y-6654800D02*
G01*
X4288027Y-6654800D01*
X4239513Y-6654800D02*
G01*
X4239513Y-6633971D01*
X4241800Y-6627113D01*
X4244086Y-6624828D01*
X4248658Y-6622542D01*
X4253229Y-6622542D01*
X4258056Y-6624828D01*
X4260341Y-6627113D01*
X4262627Y-6633971D01*
X4262627Y-6654800D01*
X4262627Y-6638544D02*
G01*
X4288027Y-6622542D01*
X4239513Y-6607302D02*
G01*
X4288027Y-6574789D01*
X4239513Y-6574789D02*
G01*
X4288027Y-6607302D01*
X8437372Y-6622542D02*
G01*
X8432800Y-6627113D01*
X8430513Y-6633971D01*
X8430513Y-6643370D01*
X8432800Y-6650228D01*
X8437372Y-6654800D01*
X8441943Y-6654800D01*
X8446770Y-6652513D01*
X8449056Y-6650228D01*
X8451341Y-6645655D01*
X8455913Y-6631686D01*
X8458200Y-6627113D01*
X8460486Y-6624828D01*
X8465058Y-6622542D01*
X8472170Y-6622542D01*
X8476741Y-6627113D01*
X8479027Y-6633971D01*
X8479027Y-6643370D01*
X8476741Y-6650228D01*
X8472170Y-6654800D01*
X8430513Y-6607302D02*
G01*
X8479027Y-6607302D01*
X8430513Y-6607302D02*
G01*
X8430513Y-6591045D01*
X8432800Y-6584187D01*
X8437372Y-6579615D01*
X8441943Y-6577329D01*
X8449056Y-6574789D01*
X8460486Y-6574789D01*
X8467343Y-6577329D01*
X8472170Y-6579615D01*
X8476741Y-6584187D01*
X8479027Y-6591045D01*
X8479027Y-6607302D01*
X8430513Y-6541262D02*
G01*
X8479027Y-6559550D01*
X8430513Y-6541262D02*
G01*
X8479027Y-6522720D01*
X8462772Y-6552692D02*
G01*
X8462772Y-6529578D01*
X8691372Y-6622542D02*
G01*
X8686800Y-6627113D01*
X8684513Y-6633971D01*
X8684513Y-6643370D01*
X8686800Y-6650228D01*
X8691372Y-6654800D01*
X8695943Y-6654800D01*
X8700770Y-6652513D01*
X8703056Y-6650228D01*
X8705341Y-6645655D01*
X8709913Y-6631686D01*
X8712200Y-6627113D01*
X8714486Y-6624828D01*
X8719058Y-6622542D01*
X8726170Y-6622542D01*
X8730741Y-6627113D01*
X8733027Y-6633971D01*
X8733027Y-6643370D01*
X8730741Y-6650228D01*
X8726170Y-6654800D01*
X8695943Y-6572504D02*
G01*
X8691372Y-6574789D01*
X8686800Y-6579615D01*
X8684513Y-6584187D01*
X8684513Y-6593331D01*
X8686800Y-6597904D01*
X8691372Y-6602729D01*
X8695943Y-6605015D01*
X8703056Y-6607302D01*
X8714486Y-6607302D01*
X8721343Y-6605015D01*
X8726170Y-6602729D01*
X8730741Y-6597904D01*
X8733027Y-6593331D01*
X8733027Y-6584187D01*
X8730741Y-6579615D01*
X8726170Y-6574789D01*
X8721343Y-6572504D01*
X8684513Y-6557263D02*
G01*
X8733027Y-6557263D01*
X8733027Y-6557263D02*
G01*
X8733027Y-6529578D01*
X7439913Y-2095500D02*
G01*
X7488427Y-2095500D01*
X7439913Y-2066289D02*
G01*
X7442200Y-2071115D01*
X7446772Y-2075687D01*
X7451343Y-2077973D01*
X7458456Y-2080260D01*
X7469886Y-2080260D01*
X7476743Y-2077973D01*
X7481570Y-2075687D01*
X7486141Y-2071115D01*
X7488427Y-2066289D01*
X7488427Y-2057145D01*
X7486141Y-2052573D01*
X7481570Y-2048002D01*
X7476743Y-2045715D01*
X7469886Y-2043429D01*
X7458456Y-2043429D01*
X7451343Y-2045715D01*
X7446772Y-2048002D01*
X7442200Y-2052573D01*
X7439913Y-2057145D01*
X7439913Y-2066289D01*
X7439913Y-2028189D02*
G01*
X7488427Y-2028189D01*
X7439913Y-2028189D02*
G01*
X7439913Y-2007362D01*
X7442200Y-2000250D01*
X7444486Y-1997963D01*
X7449058Y-1995678D01*
X7453629Y-1995678D01*
X7458456Y-1997963D01*
X7460741Y-2000250D01*
X7463027Y-2007362D01*
X7463027Y-2028189D01*
X7463027Y-2011934D02*
G01*
X7488427Y-1995678D01*
X7439913Y-1980437D02*
G01*
X7488427Y-1980437D01*
X7439913Y-1980437D02*
G01*
X7439913Y-1950465D01*
X7463027Y-1980437D02*
G01*
X7463027Y-1962150D01*
X7488427Y-1980437D02*
G01*
X7488427Y-1950465D01*
X7439913Y-1935226D02*
G01*
X7488427Y-1935226D01*
X7439913Y-1935226D02*
G01*
X7439913Y-1905254D01*
X7463027Y-1935226D02*
G01*
X7463027Y-1916684D01*
D12*
X4838700Y-2540000D02*
G01*
X4838700Y-6096000D01*
X6108700Y-6096000D01*
X6108700Y-2540000D01*
X4838700Y-2540000D01*
D13*
X7112000Y-5334000D02*
G01*
X9144000Y-5334000D01*
X9144000Y-5334000D02*
G01*
X9144000Y-5842000D01*
X9144000Y-5842000D02*
G01*
X7112000Y-5842000D01*
X7112000Y-5842000D02*
G01*
X7112000Y-5334000D01*
X7112000Y-2794000D02*
G01*
X9144000Y-2794000D01*
X9144000Y-2794000D02*
G01*
X9144000Y-3302000D01*
X9144000Y-3302000D02*
G01*
X7112000Y-3302000D01*
X7112000Y-3302000D02*
G01*
X7112000Y-2794000D01*
G75*
G01*
X7112000Y-5461000D02*
G02*
X7112000Y-5715000I0J-127000D01*
G75*
G01*
X7112000Y-2921000D02*
G02*
X7112000Y-3175000I0J-127000D01*
G75*
G01
X4940300Y-2667000D02*
G03X4940300Y-2667000I-25400J0D01*
M02*
