G04 Layer: BottomLayer*
G04 EasyEDA v6.5.47, 2024-10-06 10:48:52*
G04 7f18c47773b3442c901778b5daae8bd2,c2b9568e21e3459f90af4e12abca8b04,10*
G04 Gerber Generator version 0.2*
G04 Scale: 100 percent, Rotated: No, Reflected: No *
G04 Dimensions in millimeters *
G04 leading zeros omitted , absolute positions ,4 integer and 5 decimal *
%FSLAX45Y45*%
%MOMM*%

%ADD10C,0.2540*%
%ADD11R,1.3970X1.3970*%
%ADD12C,1.3970*%
%ADD13C,1.8796*%
%ADD14R,1.5748X2.2860*%
%ADD15O,1.5748X2.286*%

%LPD*%
D10*
X8605603Y-2331803D02*
G01*
X8626007Y-2311400D01*
X8636764Y-2311400D01*
X8572500Y-4991100D02*
G01*
X9131300Y-4991100D01*
X9448800Y-4673600D01*
X9448800Y-4356100D01*
X9448800Y-2578100D01*
X9194800Y-2324100D01*
X9182100Y-2311400D01*
X8585200Y-2311400D01*
X7239000Y-5207000D02*
G01*
X7454900Y-4991100D01*
X8572500Y-4991100D01*
X8763000Y-5181600D01*
X8763000Y-5207000D01*
X6987392Y-2339192D02*
G01*
X7010232Y-2316353D01*
X7010232Y-2311400D01*
X6959600Y-2311400D02*
G01*
X8585200Y-2311400D01*
X8763000Y-2489200D01*
X8763000Y-2667000D01*
X6756400Y-2277008D02*
G01*
X6722008Y-2311400D01*
X6707619Y-2311400D01*
X6797789Y-2311400D02*
G01*
X6762127Y-2275738D01*
X6756400Y-2275738D01*
X6756400Y-1955800D02*
G01*
X6756400Y-2298700D01*
X6235700Y-2667000D02*
G01*
X6591300Y-2311400D01*
X6959600Y-2311400D01*
X7239000Y-2590800D01*
X7239000Y-2667000D01*
X4978400Y-6781800D02*
G01*
X5168900Y-6972300D01*
X6159500Y-6972300D01*
X8864600Y-6972300D01*
X9169400Y-6667500D01*
X9169400Y-5905500D01*
X9169400Y-5715000D01*
X8928100Y-5473700D01*
X8724900Y-5473700D01*
X8509000Y-5257800D01*
X8509000Y-5207000D01*
X5232400Y-6781800D02*
G01*
X5372100Y-6921500D01*
X6032500Y-6921500D01*
X8775700Y-6921500D01*
X8877300Y-6819900D01*
X8877300Y-5829300D01*
X8636000Y-5588000D01*
X8407400Y-5588000D01*
X8255000Y-5435600D01*
X8255000Y-5207000D01*
X8001000Y-3429000D02*
G01*
X7620000Y-3048000D01*
X5588000Y-3048000D01*
X4927600Y-3048000D01*
X4864100Y-3048000D01*
X4737100Y-2921000D01*
X4711700Y-2921000D01*
X8763000Y-5969000D02*
G01*
X8140700Y-6591300D01*
X7861300Y-6591300D01*
X4445000Y-6591300D01*
X4076700Y-6223000D01*
X4076700Y-3759200D01*
X4076700Y-3416300D01*
X4318000Y-3175000D01*
X4711700Y-3175000D01*
X8509000Y-5969000D02*
G01*
X7962900Y-6515100D01*
X7823200Y-6515100D01*
X4470400Y-6515100D01*
X4165600Y-6210300D01*
X4165600Y-6108700D01*
X4165600Y-3835400D01*
X4572000Y-3429000D01*
X4711700Y-3429000D01*
X8255000Y-5969000D02*
G01*
X7785100Y-6438900D01*
X7531100Y-6438900D01*
X4483100Y-6438900D01*
X4241800Y-6197600D01*
X4241800Y-4000500D01*
X4559300Y-3683000D01*
X4711700Y-3683000D01*
X8001000Y-5969000D02*
G01*
X7607300Y-6362700D01*
X4508500Y-6362700D01*
X4318000Y-6172200D01*
X4318000Y-6057900D01*
X4318000Y-4203700D01*
X4584700Y-3937000D01*
X4711700Y-3937000D01*
X4711700Y-4191000D02*
G01*
X4394200Y-4508500D01*
X4394200Y-4673600D01*
X4394200Y-6108700D01*
X4584700Y-6299200D01*
X4622800Y-6299200D01*
X7454900Y-6299200D01*
X7747000Y-6007100D01*
X7747000Y-5969000D01*
X7493000Y-5969000D02*
G01*
X7239000Y-6223000D01*
X7112000Y-6223000D01*
X5537200Y-6223000D01*
X4622800Y-6223000D01*
X4470400Y-6070600D01*
X4470400Y-4597400D01*
X4622800Y-4445000D01*
X4711700Y-4445000D01*
X4711700Y-4699000D02*
G01*
X4559300Y-4851400D01*
X4559300Y-5003800D01*
X4559300Y-6070600D01*
X4635500Y-6146800D01*
X4965700Y-6146800D01*
X7061200Y-6146800D01*
X7239000Y-5969000D01*
X7493000Y-5207000D02*
G01*
X7099300Y-5600700D01*
X6756400Y-5600700D01*
X5334000Y-5600700D01*
X4711700Y-4978400D01*
X4711700Y-4953000D01*
X6235700Y-3937000D02*
G01*
X7683500Y-3937000D01*
X7747000Y-3873500D01*
X7747000Y-3429000D01*
X6235700Y-4191000D02*
G01*
X8686800Y-4191000D01*
X8763000Y-4114800D01*
X8763000Y-3429000D01*
D11*
G01*
X4711700Y-2667000D03*
D12*
G01*
X4711700Y-2921000D03*
G01*
X4711700Y-3175000D03*
G01*
X4711700Y-3429000D03*
G01*
X4711700Y-3683000D03*
G01*
X4711700Y-3937000D03*
G01*
X4711700Y-4191000D03*
G01*
X4711700Y-4445000D03*
G01*
X4711700Y-4699000D03*
G01*
X4711700Y-4953000D03*
G01*
X4711700Y-5207000D03*
G01*
X4711700Y-5461000D03*
G01*
X4711700Y-5715000D03*
G01*
X4711700Y-5969000D03*
G01*
X6235700Y-5969000D03*
G01*
X6235700Y-5715000D03*
G01*
X6235700Y-5461000D03*
G01*
X6235700Y-5207000D03*
G01*
X6235700Y-4953000D03*
G01*
X6235700Y-4699000D03*
G01*
X6235700Y-4445000D03*
G01*
X6235700Y-4191000D03*
G01*
X6235700Y-3937000D03*
G01*
X6235700Y-3683000D03*
G01*
X6235700Y-3429000D03*
G01*
X6235700Y-3175000D03*
G01*
X6235700Y-2921000D03*
G01*
X6235700Y-2667000D03*
D13*
G01*
X7264400Y-1955800D03*
G01*
X7010400Y-1955800D03*
G01*
X6756400Y-1955800D03*
G01*
X6502400Y-1955800D03*
G01*
X6248400Y-1955800D03*
G01*
X5994400Y-1955800D03*
G01*
X5486400Y-1955800D03*
G01*
X5232400Y-1955800D03*
G01*
X4978400Y-1955800D03*
G01*
X4724400Y-1955800D03*
G01*
X4470400Y-1955800D03*
G01*
X4216400Y-1955800D03*
G01*
X4216400Y-6781800D03*
G01*
X4470400Y-6781800D03*
G01*
X4724400Y-6781800D03*
G01*
X4978400Y-6781800D03*
G01*
X5232400Y-6781800D03*
G01*
X5486400Y-6781800D03*
G01*
X5740400Y-6781800D03*
G01*
X5994400Y-6781800D03*
G01*
X6375400Y-6781800D03*
G01*
X6629400Y-6781800D03*
G01*
X6883400Y-6781800D03*
G01*
X7137400Y-6781800D03*
G01*
X7391400Y-6781800D03*
G01*
X7645400Y-6781800D03*
G01*
X7899400Y-6781800D03*
G01*
X8153400Y-6781800D03*
G01*
X8407400Y-6781800D03*
G01*
X8661400Y-6781800D03*
G01*
X7518400Y-1955800D03*
G01*
X7772400Y-1955800D03*
D14*
G01*
X7239000Y-5969000D03*
D15*
G01*
X7493000Y-5969000D03*
G01*
X7747000Y-5969000D03*
G01*
X8001000Y-5969000D03*
G01*
X8255000Y-5969000D03*
G01*
X8509000Y-5969000D03*
G01*
X8763000Y-5969000D03*
G01*
X9017000Y-5969000D03*
G01*
X9017000Y-5207000D03*
G01*
X8763000Y-5207000D03*
G01*
X8509000Y-5207000D03*
G01*
X8255000Y-5207000D03*
G01*
X8001000Y-5207000D03*
G01*
X7747000Y-5207000D03*
G01*
X7493000Y-5207000D03*
G01*
X7239000Y-5207000D03*
D14*
G01*
X7239000Y-3429000D03*
D15*
G01*
X7493000Y-3429000D03*
G01*
X7747000Y-3429000D03*
G01*
X8001000Y-3429000D03*
G01*
X8255000Y-3429000D03*
G01*
X8509000Y-3429000D03*
G01*
X8763000Y-3429000D03*
G01*
X9017000Y-3429000D03*
G01*
X9017000Y-2667000D03*
G01*
X8763000Y-2667000D03*
G01*
X8509000Y-2667000D03*
G01*
X8255000Y-2667000D03*
G01*
X8001000Y-2667000D03*
G01*
X7747000Y-2667000D03*
G01*
X7493000Y-2667000D03*
G01*
X7239000Y-2667000D03*
M02*
